<svg version="1.1" id="Layer_1" xmlns="http://www.w3.org/2000/svg" xmlns:xlink="http://www.w3.org/1999/xlink" x="0px" y="0px"
	 width="100%" viewBox="0 0 7500 7500" enable-background="new 0 0 7500 7500" xml:space="preserve">
<path fill="#184FA2" opacity="1.000000" stroke="none" 
	d="
M3820.000000,7504.000000 
	C3782.583008,7504.000000 3745.166260,7504.000000 3704.630371,7502.903320 
	C3694.992432,7501.274902 3688.481689,7500.598633 3681.953125,7500.238770 
	C3655.695557,7498.790039 3629.218750,7502.532227 3603.118652,7496.427246 
	C3597.477295,7495.107422 3591.278320,7495.917480 3585.350830,7496.138184 
	C3578.581787,7496.390137 3572.351807,7498.225098 3568.000000,7504.000000 
	C3554.554932,7504.000000 3541.109619,7504.000000 3524.691162,7502.791504 
	C3499.815918,7500.109863 3477.932373,7497.885254 3456.007568,7497.347168 
	C3426.701660,7496.627441 3397.435791,7496.645508 3368.261719,7492.758301 
	C3311.499512,7485.194824 3254.480225,7479.407715 3197.878174,7470.832031 
	C3108.328857,7457.265137 3019.440186,7439.951172 2930.916260,7420.675781 
	C2739.190186,7378.928711 2552.126953,7322.051270 2370.028564,7248.990723 
	C2168.031494,7167.946289 1974.286743,7070.448730 1788.904785,6956.366211 
	C1664.465454,6879.786133 1544.477905,6796.836426 1430.677979,6705.125000 
	C1304.497314,6603.435547 1183.746338,6495.692383 1069.768433,6380.394531 
	C1011.173584,6321.122070 954.843384,6259.804688 900.662964,6196.509277 
	C796.941772,6075.338867 701.762939,5947.765137 614.360657,5814.341309 
	C517.465027,5666.425781 430.919647,5512.755859 355.922546,5352.593750 
	C289.185730,5210.072266 231.822556,5063.890625 183.574463,4914.094727 
	C153.547882,4820.871582 127.016968,4726.674805 104.284042,4631.434082 
	C75.200249,4509.584961 52.031315,4386.603027 35.006447,4262.463867 
	C25.956196,4196.472656 16.589815,4130.543945 15.172729,4063.799561 
	C14.381239,4026.520752 13.454097,3989.244873 13.712137,3950.736572 
	C15.289217,3945.588379 16.143135,3941.669922 16.133856,3937.753906 
	C16.030146,3893.989990 15.845063,3850.226074 15.515041,3806.463379 
	C15.480680,3801.906982 14.801920,3797.246338 13.648821,3792.836426 
	C12.410512,3788.100586 9.242150,3784.731689 4.000000,3784.000000 
	C4.000000,3738.583008 4.000000,3693.166260 5.552544,3645.613770 
	C13.959794,3641.504150 15.861876,3636.234619 15.951396,3629.911377 
	C16.191843,3612.927002 16.378077,3595.941895 16.497375,3578.956299 
	C16.515623,3576.358154 16.235035,3573.728027 15.797128,3571.162842 
	C14.667903,3564.548340 10.639672,3560.860107 4.000000,3560.000000 
	C4.000000,3555.733154 4.000000,3551.466553 5.317550,3544.833740 
	C10.979786,3539.438477 11.549734,3534.778320 11.893233,3530.076660 
	C13.396096,3509.505615 16.212854,3488.920898 16.054712,3468.360352 
	C15.684846,3420.272705 20.018604,3372.529053 25.223343,3324.886475 
	C32.020309,3262.669189 40.807793,3200.700195 51.350368,3138.973877 
	C68.733788,3037.194580 90.057167,2936.268555 115.074493,2836.104736 
	C142.355331,2726.877930 174.620132,2619.157227 211.573288,2512.805664 
	C268.051544,2350.260742 335.845825,2192.583496 414.569763,2039.616699 
	C482.921234,1906.804688 559.109497,1778.619141 642.847900,1654.901367 
	C727.737549,1529.482788 819.848389,1409.623291 918.721313,1294.948120 
	C995.335754,1206.088867 1075.937134,1121.007080 1160.632812,1039.779785 
	C1212.097900,990.422485 1264.820435,942.480408 1319.044067,896.195496 
	C1440.334106,792.663330 1567.852173,697.446716 1701.347168,610.205383 
	C1859.971924,506.541321 2025.154175,414.776581 2197.626709,336.222992 
	C2321.944580,279.601715 2449.080322,230.219925 2579.031494,188.071976 
	C2682.928467,154.374344 2787.935547,124.694489 2894.230225,99.513573 
	C3004.423828,73.408997 3115.471436,51.880363 3227.417480,34.745335 
	C3299.246094,23.750813 3371.452148,16.799822 3443.919922,12.633384 
	C3483.787354,10.341249 3523.772705,10.097833 3564.948486,10.080980 
	C3574.129150,11.597682 3582.070312,11.895592 3590.002686,12.344623 
	C3607.174072,13.316675 3624.322021,10.934782 3641.636230,14.204745 
	C3650.941650,15.962105 3661.659180,13.694342 3668.000000,4.000000 
	C3726.750244,4.000000 3785.500488,4.000000 3847.013672,5.132502 
	C3859.994629,13.171269 3870.998535,15.938128 3883.392334,13.829101 
	C3890.486328,12.621856 3897.795410,12.389532 3905.016113,12.277135 
	C3917.570557,12.081722 3930.139648,12.585014 3942.686279,12.230845 
	C3947.076416,12.106930 3951.419189,10.319011 3957.650391,9.236338 
	C3985.469482,9.833765 4011.424316,10.395926 4037.372803,11.170256 
	C4054.014404,11.666861 4070.680664,12.011301 4087.276855,13.228631 
	C4147.702637,17.660891 4208.005371,23.238310 4268.081543,31.374748 
	C4329.465820,39.688408 4390.531738,49.811596 4451.289551,61.749920 
	C4536.215332,78.436981 4620.444824,98.181206 4704.296875,119.648735 
	C4821.755859,149.720032 4937.488281,185.266388 5051.485352,226.533783 
	C5258.067383,301.317200 5455.763184,395.040222 5645.603027,505.447845 
	C5834.970703,615.580994 6013.583496,740.998047 6181.088867,882.264221 
	C6288.157715,972.561157 6390.601562,1067.635742 6485.963379,1170.337646 
	C6592.614258,1285.197632 6693.394531,1404.873047 6786.608398,1530.920898 
	C6928.060059,1722.196411 7049.384766,1925.535156 7151.725098,2140.198975 
	C7246.785156,2339.591309 7323.289551,2545.955078 7382.218750,2758.842529 
	C7411.364746,2864.135742 7435.587891,2970.566895 7455.226074,3078.015137 
	C7466.957031,3142.197021 7476.495117,3206.732666 7485.126953,3271.429688 
	C7492.623047,3327.616455 7496.996094,3383.951660 7498.967285,3440.530273 
	C7499.640137,3459.839111 7499.534180,3479.178711 7500.413574,3498.475342 
	C7500.802734,3507.020508 7502.756348,3515.493896 7504.000000,3524.000000 
	C7504.000000,3541.427490 7504.000000,3558.855225 7502.657227,3579.186523 
	C7500.793457,3583.986816 7499.809082,3585.885986 7499.818359,3587.780273 
	C7500.004883,3626.182129 7500.230469,3664.584717 7500.728516,3702.983154 
	C7500.767090,3706.002441 7502.861328,3708.994873 7504.000000,3712.000000 
	C7504.000000,3764.083496 7504.000000,3816.167236 7502.784180,3871.277344 
	C7501.110352,3898.104980 7500.552734,3921.905762 7500.356934,3945.708740 
	C7500.337891,3947.989502 7502.568848,3950.288330 7503.428711,3954.367920 
	C7502.166016,3977.746094 7501.021973,3999.328613 7500.374023,4020.926270 
	C7499.981445,4034.017090 7500.357422,4047.130615 7500.296875,4062.083496 
	C7499.792969,4079.256592 7500.264160,4094.665283 7498.804688,4109.888672 
	C7493.976562,4160.264648 7489.413574,4210.697266 7482.973145,4260.879883 
	C7472.882324,4339.507324 7458.787598,4417.519531 7442.805176,4495.156738 
	C7408.533203,4661.640137 7365.162598,4825.649414 7309.693848,4986.431152 
	C7208.142578,5280.786621 7070.927734,5557.502441 6900.303711,5817.814453 
	C6767.634277,6020.220215 6616.016113,6207.406738 6447.490723,6380.944824 
	C6386.662598,6443.581543 6323.604492,6503.952637 6258.483887,6562.146973 
	C6120.576172,6685.388184 5974.104492,6797.432617 5819.341309,6898.692383 
	C5674.727051,6993.311523 5524.225098,7077.422852 5368.149414,7151.535645 
	C5219.366211,7222.186035 5066.656738,7282.980957 4909.756836,7333.250977 
	C4773.266602,7376.981934 4634.711426,7412.527832 4494.047852,7439.922852 
	C4412.997559,7455.708496 4331.890137,7471.226562 4250.050293,7482.412109 
	C4203.200684,7488.815430 4156.224609,7494.344727 4108.922363,7496.346680 
	C4087.641113,7497.247070 4066.360352,7498.179688 4045.072754,7498.901855 
	C4031.758301,7499.353516 4018.415771,7499.130371 4005.115967,7499.804199 
	C3996.645752,7500.232910 3987.684814,7498.568848 3980.000000,7504.000000 
	C3969.199951,7504.000000 3958.399902,7504.000000 3944.861328,7502.800781 
	C3932.219971,7494.084473 3920.514893,7494.458984 3909.775879,7496.924805 
	C3895.972656,7500.095215 3882.268311,7499.733398 3868.451660,7499.939453 
	C3855.899658,7500.126465 3843.333252,7499.866699 3830.798584,7500.397461 
	C3827.154785,7500.551270 3823.597168,7502.742676 3820.000000,7504.000000 
M579.877563,4037.930664 
	C581.151062,4048.362305 582.455505,4058.790527 583.692688,4069.226562 
	C589.163696,4115.375977 602.711853,4159.303223 620.415833,4202.059082 
	C621.608521,4204.939453 624.255920,4207.217773 626.762756,4212.895996 
	C629.281982,4224.604492 630.510315,4236.786133 634.592163,4247.921875 
	C642.817749,4270.362793 652.419373,4292.310547 661.822632,4314.303223 
	C665.470032,4322.833984 670.304932,4330.848633 674.270630,4339.252930 
	C683.651306,4359.133789 692.376038,4379.336426 702.183899,4399.000977 
	C733.160767,4461.109863 768.415466,4520.710938 808.885315,4577.129883 
	C834.524475,4612.873047 861.574951,4647.558594 890.965942,4680.312988 
	C920.338013,4713.046875 950.762451,4744.701172 983.307068,4774.435059 
	C1029.147827,4816.316895 1077.317993,4855.122070 1128.174438,4890.647949 
	C1207.614014,4946.140625 1291.660034,4993.422363 1380.347656,5032.548828 
	C1445.674194,5061.368164 1512.729004,5085.113281 1581.520630,5104.185547 
	C1681.310425,5131.852051 1783.093384,5147.588867 1886.191528,5155.050781 
	C1921.375122,5157.597168 1956.734131,5158.562500 1992.016968,5158.649902 
	C2025.964233,5158.733887 2059.929932,5157.056152 2093.861816,5155.562988 
	C2116.466553,5154.568359 2139.114990,5153.331055 2161.584961,5150.795898 
	C2198.591064,5146.620605 2235.461426,5141.250488 2272.401855,5136.485840 
	C2314.025146,5131.117188 2355.087158,5122.669434 2395.988770,5113.517578 
	C2477.938965,5095.180664 2558.409912,5071.727539 2637.454102,5043.280762 
	C2712.744385,5016.185547 2786.285400,4984.999512 2858.362061,4950.333008 
	C2915.430908,4922.884277 2971.072510,4892.722656 3025.811768,4860.898438 
	C3123.844971,4803.903320 3217.847656,4740.820801 3308.743896,4673.077637 
	C3380.883301,4619.313477 3450.890137,4562.903320 3519.021240,4504.125488 
	C3569.477295,4460.597168 3619.456055,4416.562012 3667.788330,4370.678711 
	C3691.950684,4347.740234 3716.115479,4324.803711 3740.286621,4301.874512 
	C3742.219238,4300.041016 3744.095215,4298.119629 3746.196045,4296.495605 
	C3754.791992,4289.849609 3762.995117,4289.376465 3771.859375,4295.761719 
	C3776.681885,4299.235352 3780.845215,4303.660156 3785.137695,4307.829102 
	C3811.432861,4333.369141 3837.031250,4359.670410 3864.095459,4384.365723 
	C3904.443359,4421.181152 3945.529785,4457.204590 3986.832031,4492.952637 
	C4024.605957,4525.646973 4062.452881,4558.315918 4101.420410,4589.558105 
	C4144.545898,4624.134277 4188.604004,4657.583984 4232.933594,4690.614746 
	C4298.684082,4739.606934 4366.949219,4784.977539 4436.857422,4827.797852 
	C4530.701660,4885.281738 4627.654785,4936.982910 4728.063965,4982.135254 
	C4785.197266,5007.826660 4843.278320,5031.154297 4902.387695,5051.864258 
	C4986.052246,5081.178223 5071.254883,5105.073730 5158.174316,5122.608398 
	C5201.872070,5131.424316 5245.756836,5139.314453 5290.102051,5144.217773 
	C5317.872559,5147.288086 5345.647949,5150.489258 5373.498535,5152.614258 
	C5409.988770,5155.397949 5446.528320,5158.138672 5483.095703,5159.171875 
	C5541.718750,5160.828125 5600.211914,5157.661133 5658.687988,5152.840332 
	C5697.879883,5149.609863 5736.845215,5144.811035 5775.554199,5138.529297 
	C5832.704102,5129.254883 5889.160156,5116.524414 5945.004395,5100.894043 
	C6058.437988,5069.146973 6166.694336,5025.114746 6269.507324,4967.604980 
	C6368.896484,4912.010254 6459.393555,4844.388672 6542.343262,4766.535645 
	C6584.186035,4727.263672 6623.203613,4685.253418 6659.651367,4640.989746 
	C6734.145020,4550.521973 6796.202148,4452.244629 6844.056152,4345.049805 
	C6877.826172,4269.404785 6904.449219,4191.415039 6923.909180,4110.955566 
	C6934.550781,4066.958252 6943.646973,4022.643311 6948.850586,3977.618896 
	C6952.438965,3946.566650 6957.607910,3915.579346 6959.032715,3884.424072 
	C6960.824707,3845.260254 6962.138184,3806.042969 6961.261230,3766.715576 
	C6960.071289,3713.373047 6955.663086,3660.423828 6950.837402,3605.564941 
	C6958.338867,3592.341309 6960.979492,3578.635986 6956.755859,3563.551270 
	C6954.272461,3554.682861 6952.935547,3545.399658 6951.999023,3536.209961 
	C6949.515625,3511.831543 6946.336914,3487.591553 6939.792969,3463.925049 
	C6937.884277,3457.024170 6937.097656,3449.589844 6931.774414,3440.875977 
	C6930.564941,3435.422119 6929.503906,3429.929688 6928.099609,3424.526611 
	C6927.000977,3420.300537 6925.477539,3416.185303 6925.557617,3410.676514 
	C6926.876953,3407.923584 6926.393555,3405.664795 6923.799316,3400.686279 
	C6921.626953,3390.319092 6920.138672,3379.747070 6917.112305,3369.635254 
	C6913.112793,3356.270752 6907.470703,3343.404053 6903.300293,3330.083496 
	C6888.173828,3281.765381 6870.662109,3234.314209 6851.483887,3187.489502 
	C6844.937500,3171.503906 6837.173340,3155.981689 6829.276855,3140.601074 
	C6826.013184,3134.245117 6820.940918,3128.818115 6815.816895,3120.310303 
	C6805.512207,3100.151611 6795.630371,3079.762939 6784.829102,3059.874023 
	C6739.732910,2976.834961 6683.561035,2901.761719 6619.944336,2832.113770 
	C6483.699707,2682.950684 6324.179199,2566.023926 6138.636719,2485.325439 
	C5964.986816,2409.800049 5782.708008,2371.199219 5594.253418,2360.840576 
	C5483.515625,2354.753906 5373.068848,2360.316162 5263.340332,2376.926270 
	C5171.693359,2390.799805 5081.548828,2411.439209 4992.792480,2438.258789 
	C4824.988770,2488.964600 4665.912109,2559.758057 4513.386719,2645.722412 
	C4508.755371,2648.332764 4503.792969,2650.760010 4499.977539,2654.332275 
	C4491.519043,2662.250244 4481.839844,2667.609619 4471.070801,2671.643066 
	C4465.542969,2673.713135 4460.470703,2677.162598 4455.447266,2680.386230 
	C4426.848633,2698.738281 4398.284180,2717.144775 4369.785645,2735.651855 
	C4200.546387,2845.554932 4041.660400,2968.589111 3896.451172,3108.965088 
	C3893.102295,3112.202393 3889.751221,3115.514648 3886.008789,3118.255859 
	C3850.906006,3143.965576 3819.905029,3174.172607 3789.889160,3205.480469 
	C3785.743164,3209.804688 3781.564209,3214.168213 3776.937744,3217.947021 
	C3765.248291,3227.494385 3754.307373,3228.052734 3742.385498,3219.025391 
	C3735.524902,3213.830322 3729.564697,3207.420410 3723.355713,3201.396240 
	C3702.791504,3181.446045 3683.216553,3160.352051 3661.513916,3141.734619 
	C3640.808838,3123.973145 3620.395996,3105.999023 3600.293945,3087.538330 
	C3516.308105,3010.410156 3428.904297,2937.294678 3338.035400,2868.375732 
	C3192.245605,2757.801270 3039.461182,2658.229492 2874.912598,2577.650879 
	C2726.783203,2505.112305 2574.318604,2444.285889 2411.955322,2410.911865 
	C2373.377441,2402.982178 2335.896484,2391.066406 2301.927734,2370.181885 
	C2298.474365,2368.058594 2294.773438,2365.920410 2290.843018,2368.506836 
	C2285.377686,2372.103271 2289.564453,2376.824463 2289.860596,2381.090820 
	C2289.899902,2381.660645 2289.570068,2382.256348 2289.322266,2383.166504 
	C2287.571533,2383.547119 2285.569824,2384.571289 2283.781006,2384.281494 
	C2261.479980,2380.667969 2238.514648,2381.420166 2216.786377,2373.870850 
	C2212.481201,2372.374756 2207.614258,2372.337158 2202.979004,2371.977051 
	C2162.465820,2368.830811 2121.973145,2365.341064 2081.423340,2362.759033 
	C1986.665161,2356.726074 1892.221191,2361.663086 1798.134888,2373.199219 
	C1725.337524,2382.125000 1653.577393,2396.811768 1582.827515,2416.220215 
	C1395.625366,2467.574219 1224.504150,2551.198486 1071.434814,2671.088623 
	C985.503906,2738.393311 908.207092,2814.375732 841.006409,2900.435303 
	C707.412415,3071.521240 619.026062,3263.207764 579.115723,3476.894043 
	C575.943359,3493.879639 572.428528,3510.800781 566.648804,3529.356689 
	C565.806396,3535.839600 564.536072,3542.301270 564.212708,3548.810059 
	C563.584961,3561.446045 565.067322,3574.404297 562.764526,3586.683350 
	C560.023376,3601.299805 560.703003,3615.841553 559.740845,3630.407227 
	C558.778748,3644.971680 556.416626,3659.496582 556.290283,3674.052979 
	C555.833435,3726.686523 555.964355,3779.325928 556.137268,3831.962646 
	C556.161072,3839.207520 557.781433,3846.437012 558.470642,3853.692139 
	C559.785706,3867.534912 563.091003,3881.610352 561.687195,3895.187988 
	C559.687317,3914.531494 560.495667,3933.735840 560.274414,3952.998779 
	C560.221619,3957.594727 560.803284,3962.336182 561.962585,3966.784424 
	C567.820984,3989.261230 573.966553,4011.662842 579.877563,4037.930664 
z"/>
<path fill="#FFFFFF" opacity="1.000000" stroke="none" 
	d="
M3563.704834,8.930719 
	C3523.772705,10.097833 3483.787354,10.341249 3443.919922,12.633384 
	C3371.452148,16.799822 3299.246094,23.750813 3227.417480,34.745335 
	C3115.471436,51.880363 3004.423828,73.408997 2894.230225,99.513573 
	C2787.935547,124.694489 2682.928467,154.374344 2579.031494,188.071976 
	C2449.080322,230.219925 2321.944580,279.601715 2197.626709,336.222992 
	C2025.154175,414.776581 1859.971924,506.541321 1701.347168,610.205383 
	C1567.852173,697.446716 1440.334106,792.663330 1319.044067,896.195496 
	C1264.820435,942.480408 1212.097900,990.422485 1160.632812,1039.779785 
	C1075.937134,1121.007080 995.335754,1206.088867 918.721313,1294.948120 
	C819.848389,1409.623291 727.737549,1529.482788 642.847900,1654.901367 
	C559.109497,1778.619141 482.921234,1906.804688 414.569763,2039.616699 
	C335.845825,2192.583496 268.051544,2350.260742 211.573288,2512.805664 
	C174.620132,2619.157227 142.355331,2726.877930 115.074493,2836.104736 
	C90.057167,2936.268555 68.733788,3037.194580 51.350368,3138.973877 
	C40.807793,3200.700195 32.020309,3262.669189 25.223343,3324.886475 
	C20.018604,3372.529053 15.684846,3420.272705 16.054712,3468.360352 
	C16.212854,3488.920898 13.396096,3509.505615 11.893233,3530.076660 
	C11.549734,3534.778320 10.979786,3539.438477 5.317550,3543.233887 
	C4.000000,2364.290771 4.000000,1184.581543 4.000000,4.000000 
	C1189.416748,4.000000 2374.833740,4.000000 3561.989746,5.228982 
	C3563.720703,7.282216 3563.712646,8.106467 3563.704834,8.930719 
z"/>
<path fill="#FFFFFF" opacity="1.000000" stroke="none" 
	d="
M12.588079,3951.967529 
	C13.454097,3989.244873 14.381239,4026.520752 15.172729,4063.799561 
	C16.589815,4130.543945 25.956196,4196.472656 35.006447,4262.463867 
	C52.031315,4386.603027 75.200249,4509.584961 104.284042,4631.434082 
	C127.016968,4726.674805 153.547882,4820.871582 183.574463,4914.094727 
	C231.822556,5063.890625 289.185730,5210.072266 355.922546,5352.593750 
	C430.919647,5512.755859 517.465027,5666.425781 614.360657,5814.341309 
	C701.762939,5947.765137 796.941772,6075.338867 900.662964,6196.509277 
	C954.843384,6259.804688 1011.173584,6321.122070 1069.768433,6380.394531 
	C1183.746338,6495.692383 1304.497314,6603.435547 1430.677979,6705.125000 
	C1544.477905,6796.836426 1664.465454,6879.786133 1788.904785,6956.366211 
	C1974.286743,7070.448730 2168.031494,7167.946289 2370.028564,7248.990723 
	C2552.126953,7322.051270 2739.190186,7378.928711 2930.916260,7420.675781 
	C3019.440186,7439.951172 3108.328857,7457.265137 3197.878174,7470.832031 
	C3254.480225,7479.407715 3311.499512,7485.194824 3368.261719,7492.758301 
	C3397.435791,7496.645508 3426.701660,7496.627441 3456.007568,7497.347168 
	C3477.932373,7497.885254 3499.815918,7500.109863 3522.858887,7502.791504 
	C2350.956787,7504.000000 1177.913818,7504.000000 4.000000,7504.000000 
	C4.000000,6321.250000 4.000000,5138.499512 5.396915,3953.365967 
	C8.725246,3951.311035 10.656661,3951.639404 12.588079,3951.967529 
z"/>
<path fill="#FFFFFF" opacity="1.000000" stroke="none" 
	d="
M7504.000000,3522.125488 
	C7502.756348,3515.493896 7500.802734,3507.020508 7500.413574,3498.475342 
	C7499.534180,3479.178711 7499.640137,3459.839111 7498.967285,3440.530273 
	C7496.996094,3383.951660 7492.623047,3327.616455 7485.126953,3271.429688 
	C7476.495117,3206.732666 7466.957031,3142.197021 7455.226074,3078.015137 
	C7435.587891,2970.566895 7411.364746,2864.135742 7382.218750,2758.842529 
	C7323.289551,2545.955078 7246.785156,2339.591309 7151.725098,2140.198975 
	C7049.384766,1925.535156 6928.060059,1722.196411 6786.608398,1530.920898 
	C6693.394531,1404.873047 6592.614258,1285.197632 6485.963379,1170.337646 
	C6390.601562,1067.635742 6288.157715,972.561157 6181.088867,882.264221 
	C6013.583496,740.998047 5834.970703,615.580994 5645.603027,505.447845 
	C5455.763184,395.040222 5258.067383,301.317200 5051.485352,226.533783 
	C4937.488281,185.266388 4821.755859,149.720032 4704.296875,119.648735 
	C4620.444824,98.181206 4536.215332,78.436981 4451.289551,61.749920 
	C4390.531738,49.811596 4329.465820,39.688408 4268.081543,31.374748 
	C4208.005371,23.238310 4147.702637,17.660891 4087.276855,13.228631 
	C4070.680664,12.011301 4054.014404,11.666861 4037.372803,11.170256 
	C4011.424316,10.395926 3985.469482,9.833765 3957.420898,7.902024 
	C3955.549805,5.748230 3955.774902,4.874115 3956.000000,4.000000 
	C5138.374023,4.000000 6320.747559,4.000000 7504.000000,4.000000 
	C7504.000000,1176.083374 7504.000000,2348.166992 7504.000000,3522.125488 
z"/>
<path fill="#FFFFFF" opacity="1.000000" stroke="none" 
	d="
M3981.874512,7504.000000 
	C3987.684814,7498.568848 3996.645752,7500.232910 4005.115967,7499.804199 
	C4018.415771,7499.130371 4031.758301,7499.353516 4045.072754,7498.901855 
	C4066.360352,7498.179688 4087.641113,7497.247070 4108.922363,7496.346680 
	C4156.224609,7494.344727 4203.200684,7488.815430 4250.050293,7482.412109 
	C4331.890137,7471.226562 4412.997559,7455.708496 4494.047852,7439.922852 
	C4634.711426,7412.527832 4773.266602,7376.981934 4909.756836,7333.250977 
	C5066.656738,7282.980957 5219.366211,7222.186035 5368.149414,7151.535645 
	C5524.225098,7077.422852 5674.727051,6993.311523 5819.341309,6898.692383 
	C5974.104492,6797.432617 6120.576172,6685.388184 6258.483887,6562.146973 
	C6323.604492,6503.952637 6386.662598,6443.581543 6447.490723,6380.944824 
	C6616.016113,6207.406738 6767.634277,6020.220215 6900.303711,5817.814453 
	C7070.927734,5557.502441 7208.142578,5280.786621 7309.693848,4986.431152 
	C7365.162598,4825.649414 7408.533203,4661.640137 7442.805176,4495.156738 
	C7458.787598,4417.519531 7472.882324,4339.507324 7482.973145,4260.879883 
	C7489.413574,4210.697266 7493.976562,4160.264648 7498.804688,4109.888672 
	C7500.264160,4094.665283 7499.792969,4079.256592 7501.194824,4061.945801 
	C7502.184082,4059.958740 7504.000000,4060.000000 7504.000000,4060.000000 
	C7504.000000,5207.711914 7504.000000,6355.423340 7504.000000,7504.000000 
	C6330.583008,7504.000000 5157.166016,7504.000000 3981.874512,7504.000000 
z"/>
<path fill="#4A8C9E" opacity="1.000000" stroke="none" 
	d="
M13.712133,3950.736572 
	C10.656661,3951.639404 8.725246,3951.311035 5.396915,3951.491211 
	C4.000000,3897.249756 4.000000,3842.499512 4.000000,3785.874512 
	C9.242150,3784.731689 12.410512,3788.100586 13.648821,3792.836426 
	C14.801920,3797.246338 15.480680,3801.906982 15.515041,3806.463379 
	C15.845063,3850.226074 16.030146,3893.989990 16.133856,3937.753906 
	C16.143135,3941.669922 15.289217,3945.588379 13.712133,3950.736572 
z"/>
<path fill="#63A790" opacity="1.000000" stroke="none" 
	d="
M4.000000,3561.874023 
	C10.639672,3560.860107 14.667903,3564.548340 15.797128,3571.162842 
	C16.235035,3573.728027 16.515623,3576.358154 16.497375,3578.956299 
	C16.378077,3595.941895 16.191843,3612.927002 15.951396,3629.911377 
	C15.861876,3636.234619 13.959794,3641.504150 5.552544,3643.739258 
	C4.000000,3617.249512 4.000000,3590.498779 4.000000,3561.874023 
z"/>
<path fill="#75AC9F" opacity="1.000000" stroke="none" 
	d="
M3954.125488,4.000000 
	C3955.774902,4.874115 3955.549805,5.748230 3955.554199,7.956660 
	C3951.419189,10.319011 3947.076416,12.106930 3942.686279,12.230845 
	C3930.139648,12.585014 3917.570557,12.081722 3905.016113,12.277135 
	C3897.795410,12.389532 3890.486328,12.621856 3883.392334,13.829101 
	C3870.998535,15.938128 3859.994629,13.171269 3848.888428,5.132502 
	C3882.750244,4.000000 3917.500732,4.000000 3954.125488,4.000000 
z"/>
<path fill="#73ABA0" opacity="1.000000" stroke="none" 
	d="
M3564.948486,10.080979 
	C3563.712646,8.106467 3563.720703,7.282216 3563.864502,5.228982 
	C3597.416992,4.000000 3630.833984,4.000000 3666.125488,4.000000 
	C3661.659180,13.694342 3650.941650,15.962105 3641.636230,14.204745 
	C3624.322021,10.934782 3607.174072,13.316675 3590.002686,12.344623 
	C3582.070312,11.895592 3574.129150,11.597682 3564.948486,10.080979 
z"/>
<path fill="#448A99" opacity="1.000000" stroke="none" 
	d="
M3569.874512,7504.000000 
	C3572.351807,7498.225098 3578.581787,7496.390137 3585.350830,7496.138184 
	C3591.278320,7495.917480 3597.477295,7495.107422 3603.118652,7496.427246 
	C3629.218750,7502.532227 3655.695557,7498.790039 3681.953125,7500.238770 
	C3688.481689,7500.598633 3694.992432,7501.274902 3702.755859,7502.903320 
	C3659.916504,7504.000000 3615.832764,7504.000000 3569.874512,7504.000000 
z"/>
<path fill="#448A9A" opacity="1.000000" stroke="none" 
	d="
M3821.874756,7504.000000 
	C3823.597168,7502.742676 3827.154785,7500.551270 3830.798584,7500.397461 
	C3843.333252,7499.866699 3855.899658,7500.126465 3868.451660,7499.939453 
	C3882.268311,7499.733398 3895.972656,7500.095215 3909.775879,7496.924805 
	C3920.514893,7494.458984 3932.219971,7494.084473 3943.061279,7502.800781 
	C3903.916504,7504.000000 3863.832764,7504.000000 3821.874756,7504.000000 
z"/>
<path fill="#4E9496" opacity="1.000000" stroke="none" 
	d="
M7504.000000,3710.125244 
	C7502.861328,3708.994873 7500.767090,3706.002441 7500.728516,3702.983154 
	C7500.230469,3664.584717 7500.004883,3626.182129 7499.818359,3587.780273 
	C7499.809082,3585.885986 7500.793457,3583.986816 7502.657227,3581.044922 
	C7504.000000,3622.750244 7504.000000,3665.500488 7504.000000,3710.125244 
z"/>
<path fill="#A1B8DA" opacity="1.000000" stroke="none" 
	d="
M7504.000000,4058.125488 
	C7504.000000,4060.000000 7502.184082,4059.958740 7501.286133,4060.096436 
	C7500.357422,4047.130615 7499.981445,4034.017090 7500.374023,4020.926270 
	C7501.021973,3999.328613 7502.166016,3977.746094 7503.542969,3954.257324 
	C7503.984863,3952.357178 7504.000000,3952.000000 7504.000000,3952.000000 
	C7504.000000,3986.750244 7504.000000,4021.500732 7504.000000,4058.125488 
z"/>
<path fill="#5FA292" opacity="1.000000" stroke="none" 
	d="
M7504.000000,3950.126465 
	C7504.000000,3952.000000 7503.984863,3952.357178 7503.870117,3952.467773 
	C7502.568848,3950.288330 7500.337891,3947.989502 7500.356934,3945.708740 
	C7500.552734,3921.905762 7501.110352,3898.104980 7502.784180,3873.151855 
	C7504.000000,3897.417725 7504.000000,3922.835205 7504.000000,3950.126465 
z"/>
<path fill="#040808" opacity="1.000000" stroke="none" 
	d="
M6948.960938,3607.580322 
	C6955.663086,3660.423828 6960.071289,3713.373047 6961.261230,3766.715576 
	C6962.138184,3806.042969 6960.824707,3845.260254 6959.032715,3884.424072 
	C6957.607910,3915.579346 6952.438965,3946.566650 6948.850586,3977.618896 
	C6943.646973,4022.643311 6934.550781,4066.958252 6923.909180,4110.955566 
	C6904.449219,4191.415039 6877.826172,4269.404785 6844.056152,4345.049805 
	C6796.202148,4452.244629 6734.145020,4550.521973 6659.651367,4640.989746 
	C6623.203613,4685.253418 6584.186035,4727.263672 6542.343262,4766.535645 
	C6459.393555,4844.388672 6368.896484,4912.010254 6269.507324,4967.604980 
	C6166.694336,5025.114746 6058.437988,5069.146973 5945.004395,5100.894043 
	C5889.160156,5116.524414 5832.704102,5129.254883 5775.554199,5138.529297 
	C5736.845215,5144.811035 5697.879883,5149.609863 5658.687988,5152.840332 
	C5600.211914,5157.661133 5541.718750,5160.828125 5483.095703,5159.171875 
	C5446.528320,5158.138672 5409.988770,5155.397949 5373.498535,5152.614258 
	C5345.647949,5150.489258 5317.872559,5147.288086 5290.102051,5144.217773 
	C5245.756836,5139.314453 5201.872070,5131.424316 5158.174316,5122.608398 
	C5071.254883,5105.073730 4986.052246,5081.178223 4902.387695,5051.864258 
	C4843.278320,5031.154297 4785.197266,5007.826660 4728.063965,4982.135254 
	C4627.654785,4936.982910 4530.701660,4885.281738 4436.857422,4827.797852 
	C4366.949219,4784.977539 4298.684082,4739.606934 4232.933594,4690.614746 
	C4188.604004,4657.583984 4144.545898,4624.134277 4101.420410,4589.558105 
	C4062.452881,4558.315918 4024.605957,4525.646973 3986.832031,4492.952637 
	C3945.529785,4457.204590 3904.443359,4421.181152 3864.095459,4384.365723 
	C3837.031250,4359.670410 3811.432861,4333.369141 3785.137695,4307.829102 
	C3780.845215,4303.660156 3776.681885,4299.235352 3771.859375,4295.761719 
	C3762.995117,4289.376465 3754.791992,4289.849609 3746.196045,4296.495605 
	C3744.095215,4298.119629 3742.219238,4300.041016 3740.286621,4301.874512 
	C3716.115479,4324.803711 3691.950684,4347.740234 3667.788330,4370.678711 
	C3619.456055,4416.562012 3569.477295,4460.597168 3519.021240,4504.125488 
	C3450.890137,4562.903320 3380.883301,4619.313477 3308.743896,4673.077637 
	C3217.847656,4740.820801 3123.844971,4803.903320 3025.811768,4860.898438 
	C2971.072510,4892.722656 2915.430908,4922.884277 2858.362061,4950.333008 
	C2786.285400,4984.999512 2712.744385,5016.185547 2637.454102,5043.280762 
	C2558.409912,5071.727539 2477.938965,5095.180664 2395.988770,5113.517578 
	C2355.087158,5122.669434 2314.025146,5131.117188 2272.401855,5136.485840 
	C2235.461426,5141.250488 2198.591064,5146.620605 2161.584961,5150.795898 
	C2139.114990,5153.331055 2116.466553,5154.568359 2093.861816,5155.562988 
	C2059.929932,5157.056152 2025.964233,5158.733887 1992.016968,5158.649902 
	C1956.734131,5158.562500 1921.375122,5157.597168 1886.191528,5155.050781 
	C1783.093384,5147.588867 1681.310425,5131.852051 1581.520630,5104.185547 
	C1512.729004,5085.113281 1445.674194,5061.368164 1380.347656,5032.548828 
	C1291.660034,4993.422363 1207.614014,4946.140625 1128.174438,4890.647949 
	C1077.317993,4855.122070 1029.147827,4816.316895 983.307068,4774.435059 
	C950.762451,4744.701172 920.338013,4713.046875 890.965942,4680.312988 
	C861.574951,4647.558594 834.524475,4612.873047 808.885315,4577.129883 
	C768.415466,4520.710938 733.160767,4461.109863 702.183899,4399.000977 
	C692.376038,4379.336426 683.651306,4359.133789 674.270630,4339.252930 
	C670.304932,4330.848633 665.470032,4322.833984 661.822632,4314.303223 
	C652.419373,4292.310547 642.817749,4270.362793 634.592163,4247.921875 
	C630.510315,4236.786133 629.281982,4224.604492 626.988647,4209.673340 
	C629.318359,4197.299316 619.518311,4188.419434 627.141357,4177.494629 
	C630.356079,4181.564453 633.618958,4184.576660 635.446655,4188.293945 
	C637.709412,4192.895508 638.835022,4198.066406 640.354248,4203.020996 
	C642.064758,4208.600098 645.630188,4211.789551 652.337402,4213.215820 
	C655.457092,4220.214355 657.809082,4226.089844 659.248291,4232.919922 
	C659.998108,4256.095215 668.501221,4275.671387 681.488953,4293.479492 
	C684.969666,4298.252930 688.485291,4303.110840 695.644592,4305.496094 
	C703.110474,4318.179199 710.065857,4329.544434 716.521240,4341.186035 
	C817.087158,4522.557129 954.914001,4669.758301 1128.009644,4783.019043 
	C1358.223511,4933.653809 1612.764893,5002.020508 1887.001221,4999.367676 
	C1959.746582,4998.664062 2031.934204,4990.613770 2103.716797,4978.889160 
	C2124.738037,4975.455566 2145.903320,4972.895508 2166.906494,4969.362305 
	C2199.138672,4963.940918 2230.110596,4953.476562 2261.638428,4945.203125 
	C2389.756836,4911.585449 2511.708984,4862.498047 2628.787109,4800.874512 
	C2783.975342,4719.191895 2926.509277,4619.031738 3060.105957,4505.799805 
	C3176.734863,4406.949707 3285.041016,4299.507812 3388.822510,4187.390137 
	C3499.342529,4067.992676 3604.397217,3943.852783 3708.700439,3819.056885 
	C3810.000244,3697.854736 3910.558838,3576.024658 4014.817139,3457.325928 
	C4120.444336,3337.068848 4229.553711,3220.152100 4346.756348,3110.988281 
	C4465.504395,3000.385986 4591.255859,2898.674316 4727.775879,2810.620361 
	C4876.867188,2714.458496 5035.013184,2637.578369 5205.118652,2586.041016 
	C5346.225586,2543.289307 5490.296875,2519.153320 5637.847656,2517.922607 
	C5737.414551,2517.092041 5836.028809,2526.834961 5933.641113,2547.148438 
	C6049.000977,2571.155029 6159.747559,2608.323730 6264.682129,2661.966553 
	C6464.669434,2764.200195 6627.662109,2908.307617 6751.959961,3095.634033 
	C6772.906738,3127.202881 6792.356934,3159.764648 6812.465332,3193.317627 
	C6840.274902,3253.619141 6867.918457,3312.573730 6890.024902,3373.890137 
	C6900.351074,3402.531738 6909.625488,3431.552734 6919.212891,3462.036377 
	C6922.431641,3481.222656 6925.729004,3498.790771 6929.231934,3516.317871 
	C6930.919922,3524.763184 6933.021973,3533.125488 6934.888184,3541.536133 
	C6937.898926,3555.101562 6940.923340,3568.664062 6943.837891,3582.250244 
	C6945.644531,3590.672363 6947.259766,3599.135498 6948.960938,3607.580322 
M6439.695312,3881.036621 
	C6440.294434,3872.821045 6440.893555,3864.605225 6443.050293,3852.891846 
	C6443.376953,3848.909424 6443.850098,3844.933105 6444.007324,3840.943848 
	C6445.951660,3791.585449 6444.145020,3742.478516 6437.056152,3693.463379 
	C6432.872559,3664.540771 6431.758789,3635.205566 6420.559570,3607.615234 
	C6418.101074,3601.558838 6417.790039,3594.655273 6416.218750,3588.208008 
	C6414.329590,3580.457031 6412.844727,3572.508057 6409.983398,3565.109619 
	C6392.912109,3520.972168 6374.854980,3477.263184 6352.026855,3435.687744 
	C6321.060059,3379.291260 6283.277832,3327.909180 6238.899902,3281.356934 
	C6209.393066,3250.404297 6176.993164,3222.710205 6143.010742,3196.848633 
	C6085.447754,3153.041504 6023.357422,3117.078857 5956.371582,3089.635986 
	C5890.712891,3062.736816 5822.731445,3044.887939 5752.420898,3035.109863 
	C5703.494629,3028.305420 5654.397461,3025.411865 5605.114746,3024.868164 
	C5591.173340,3024.714111 5577.217773,3026.974609 5563.258301,3027.131104 
	C5515.839355,3027.663330 5468.897461,3033.460938 5422.259766,3041.024658 
	C5366.370117,3050.089111 5311.347656,3063.420654 5257.273438,3080.361572 
	C5148.668457,3114.386475 5046.159180,3162.152588 4947.772461,3218.932373 
	C4855.299805,3272.299316 4767.449707,3332.547607 4682.748047,3397.559814 
	C4592.245605,3467.023926 4506.340820,3541.813965 4423.287598,3619.869873 
	C4377.637207,3662.773438 4333.780762,3707.586914 4289.220703,3751.645508 
	C4285.525879,3755.298340 4282.640137,3759.768555 4277.333984,3765.470947 
	C4264.880371,3773.547119 4256.502441,3785.741699 4246.256836,3796.061035 
	C4189.923828,3852.799316 4133.375977,3909.324463 4077.012939,3966.032959 
	C4071.886230,3971.191406 4066.999512,3976.765381 4062.967285,3982.792725 
	C4057.189209,3991.428711 4057.526123,4000.740479 4064.232422,4008.699951 
	C4069.331787,4014.751221 4075.267334,4020.272217 4081.512939,4025.156494 
	C4169.673828,4094.103516 4258.745605,4161.837891 4350.269531,4226.296387 
	C4482.230957,4319.233887 4619.535156,4403.190918 4764.872559,4473.723633 
	C4870.491699,4524.981445 4979.246094,4567.876953 5092.865234,4598.023438 
	C5106.341309,4601.599609 5119.404297,4606.711426 5132.826172,4610.521973 
	C5145.582031,4614.143066 5158.446777,4617.576172 5171.465332,4620.015137 
	C5184.523926,4622.461914 5197.987793,4622.799316 5211.004883,4625.406250 
	C5292.809570,4641.788574 5375.243164,4652.483887 5458.755371,4653.802246 
	C5514.792480,4654.687012 5570.634766,4652.375977 5626.055176,4643.240723 
	C5636.558105,4641.509766 5647.153809,4640.222656 5657.753906,4639.226074 
	C5678.325195,4637.291992 5698.569336,4633.672363 5718.676758,4628.956543 
	C5733.553223,4625.467773 5748.541504,4622.372070 5763.590332,4619.732422 
	C5776.135742,4617.531738 5788.143555,4614.183594 5799.637695,4608.563965 
	C5806.761230,4605.081055 5814.302734,4602.258301 5821.910156,4599.987305 
	C5991.739746,4549.300781 6134.293457,4456.527832 6250.183594,4322.606445 
	C6303.283691,4261.245117 6347.388184,4194.172363 6377.971191,4118.726562 
	C6386.207520,4098.408203 6393.148926,4077.565674 6403.145508,4055.566650 
	C6412.770996,4039.452393 6419.001465,4022.436523 6418.263672,4000.959961 
	C6418.571289,3999.267578 6418.879395,3997.574951 6420.940918,3993.536133 
	C6421.920898,3991.069580 6423.021484,3988.643066 6423.862305,3986.129883 
	C6434.960938,3952.986328 6436.634766,3918.464844 6439.695312,3881.036621 
z"/>
<path fill="#FEFEFE" opacity="1.000000" stroke="none" 
	d="
M660.161072,4231.965332 
	C657.809082,4226.089844 655.457092,4220.214355 652.465576,4211.682129 
	C649.254089,4201.530762 646.730347,4194.018555 644.102356,4186.543945 
	C627.017822,4137.951660 609.910522,4089.367432 593.021606,4039.144775 
	C591.223389,4019.675781 589.745544,4001.761719 587.034668,3984.036133 
	C584.927002,3970.255127 581.492188,3956.659424 578.272583,3943.070312 
	C573.188782,3921.612549 570.834839,3900.018799 570.633057,3877.865967 
	C570.427734,3855.322021 568.275513,3832.683838 565.344055,3810.300537 
	C559.861755,3768.440430 560.711304,3726.536377 564.280029,3684.779785 
	C568.248291,3638.347900 572.614685,3592.003662 571.338257,3545.345215 
	C571.177368,3539.464600 569.856323,3533.615479 569.072754,3527.751953 
	C572.428528,3510.800781 575.943359,3493.879639 579.115723,3476.894043 
	C619.026062,3263.207764 707.412415,3071.521240 841.006409,2900.435303 
	C908.207092,2814.375732 985.503906,2738.393311 1071.434814,2671.088623 
	C1224.504150,2551.198486 1395.625366,2467.574219 1582.827515,2416.220215 
	C1653.577393,2396.811768 1725.337524,2382.125000 1798.134888,2373.199219 
	C1892.221191,2361.663086 1986.665161,2356.726074 2081.423340,2362.759033 
	C2121.973145,2365.341064 2162.465820,2368.830811 2202.979004,2371.977051 
	C2207.614258,2372.337158 2212.481201,2372.374756 2216.786377,2373.870850 
	C2238.514648,2381.420166 2261.479980,2380.667969 2283.781006,2384.281494 
	C2285.569824,2384.571289 2287.571533,2383.547119 2289.322266,2383.166504 
	C2289.570068,2382.256348 2289.899902,2381.660645 2289.860596,2381.090820 
	C2289.564453,2376.824463 2285.377686,2372.103271 2290.843018,2368.506836 
	C2294.773438,2365.920410 2298.474365,2368.058594 2301.927734,2370.181885 
	C2335.896484,2391.066406 2373.377441,2402.982178 2411.955322,2410.911865 
	C2574.318604,2444.285889 2726.783203,2505.112305 2874.912598,2577.650879 
	C3039.461182,2658.229492 3192.245605,2757.801270 3338.035400,2868.375732 
	C3428.904297,2937.294678 3516.308105,3010.410156 3600.293945,3087.538330 
	C3620.395996,3105.999023 3640.808838,3123.973145 3661.513916,3141.734619 
	C3683.216553,3160.352051 3702.791504,3181.446045 3723.355713,3201.396240 
	C3729.564697,3207.420410 3735.524902,3213.830322 3742.385498,3219.025391 
	C3754.307373,3228.052734 3765.248291,3227.494385 3776.937744,3217.947021 
	C3781.564209,3214.168213 3785.743164,3209.804688 3789.889160,3205.480469 
	C3819.905029,3174.172607 3850.906006,3143.965576 3886.008789,3118.255859 
	C3889.751221,3115.514648 3893.102295,3112.202393 3896.451172,3108.965088 
	C4041.660400,2968.589111 4200.546387,2845.554932 4369.785645,2735.651855 
	C4398.284180,2717.144775 4426.848633,2698.738281 4455.447266,2680.386230 
	C4460.470703,2677.162598 4465.542969,2673.713135 4471.070801,2671.643066 
	C4481.839844,2667.609619 4491.519043,2662.250244 4499.977539,2654.332275 
	C4503.792969,2650.760010 4508.755371,2648.332764 4513.386719,2645.722412 
	C4665.912109,2559.758057 4824.988770,2488.964600 4992.792480,2438.258789 
	C5081.548828,2411.439209 5171.693359,2390.799805 5263.340332,2376.926270 
	C5373.068848,2360.316162 5483.515625,2354.753906 5594.253418,2360.840576 
	C5782.708008,2371.199219 5964.986816,2409.800049 6138.636719,2485.325439 
	C6324.179199,2566.023926 6483.699707,2682.950684 6619.944336,2832.113770 
	C6683.561035,2901.761719 6739.732910,2976.834961 6784.829102,3059.874023 
	C6795.630371,3079.762939 6805.512207,3100.151611 6816.023438,3123.294922 
	C6815.792969,3138.001465 6820.740723,3148.185059 6825.347656,3158.490723 
	C6836.169434,3182.697510 6847.601562,3206.662109 6857.492188,3231.245850 
	C6866.635742,3253.972900 6874.131348,3277.364990 6882.260254,3300.496582 
	C6883.724609,3304.663818 6885.951172,3309.048096 6881.149902,3313.719238 
	C6878.122559,3312.187500 6876.495605,3309.464844 6875.139648,3306.435547 
	C6865.935059,3285.867188 6856.868164,3265.235107 6847.446777,3244.766113 
	C6841.064941,3230.902100 6834.418945,3217.146240 6827.407715,3203.592041 
	C6824.356934,3197.694336 6820.215820,3192.266846 6812.498535,3191.867676 
	C6792.356934,3159.764648 6772.906738,3127.202881 6751.959961,3095.634033 
	C6627.662109,2908.307617 6464.669434,2764.200195 6264.682129,2661.966553 
	C6159.747559,2608.323730 6049.000977,2571.155029 5933.641113,2547.148438 
	C5836.028809,2526.834961 5737.414551,2517.092041 5637.847656,2517.922607 
	C5490.296875,2519.153320 5346.225586,2543.289307 5205.118652,2586.041016 
	C5035.013184,2637.578369 4876.867188,2714.458496 4727.775879,2810.620361 
	C4591.255859,2898.674316 4465.504395,3000.385986 4346.756348,3110.988281 
	C4229.553711,3220.152100 4120.444336,3337.068848 4014.817139,3457.325928 
	C3910.558838,3576.024658 3810.000244,3697.854736 3708.700439,3819.056885 
	C3604.397217,3943.852783 3499.342529,4067.992676 3388.822510,4187.390137 
	C3285.041016,4299.507812 3176.734863,4406.949707 3060.105957,4505.799805 
	C2926.509277,4619.031738 2783.975342,4719.191895 2628.787109,4800.874512 
	C2511.708984,4862.498047 2389.756836,4911.585449 2261.638428,4945.203125 
	C2230.110596,4953.476562 2199.138672,4963.940918 2166.906494,4969.362305 
	C2145.903320,4972.895508 2124.738037,4975.455566 2103.716797,4978.889160 
	C2031.934204,4990.613770 1959.746582,4998.664062 1887.001221,4999.367676 
	C1612.764893,5002.020508 1358.223511,4933.653809 1128.009644,4783.019043 
	C954.914001,4669.758301 817.087158,4522.557129 716.521240,4341.186035 
	C710.065857,4329.544434 703.110474,4318.179199 695.560791,4304.067383 
	C686.676086,4284.418945 678.740906,4267.329590 670.497803,4250.389648 
	C667.421753,4244.068359 663.627625,4238.096680 660.161072,4231.965332 
M1078.670654,3610.649414 
	C1070.697754,3645.208252 1070.827881,3680.183105 1073.409546,3715.267822 
	C1073.547729,3717.145508 1074.714111,3718.947754 1074.954590,3724.413818 
	C1075.363403,3756.376709 1075.429321,3788.288574 1078.995728,3820.191162 
	C1086.528564,3887.573242 1102.656006,3952.708496 1130.959595,4014.224854 
	C1220.080566,4207.923828 1362.258789,4347.200195 1560.275024,4427.985352 
	C1636.485474,4459.076660 1715.888428,4478.388184 1797.509277,4488.914062 
	C1849.215820,4495.582520 1901.072754,4497.535645 1953.056396,4494.612305 
	C2016.990723,4491.018066 2080.228271,4482.007812 2142.791992,4468.271484 
	C2183.107910,4459.419434 2223.209961,4449.797852 2262.660400,4437.554688 
	C2307.865723,4423.525879 2351.991699,4406.563965 2395.114014,4387.213867 
	C2438.750000,4367.633301 2483.058838,4349.755859 2525.113281,4326.361328 
	C2657.689697,4252.609375 2781.841064,4166.807129 2899.292725,4071.025635 
	C2962.319092,4019.628662 3023.001709,3965.561768 3082.531982,3910.199463 
	C3119.114258,3876.178467 3155.652344,3842.073975 3191.130615,3806.917480 
	C3207.575928,3790.620605 3221.445557,3771.724609 3239.090088,3752.803467 
	C3255.483643,3738.160889 3272.678467,3724.312256 3288.123535,3708.729248 
	C3337.843262,3658.564941 3386.970215,3607.812012 3436.169434,3557.134277 
	C3441.705811,3551.431641 3446.784668,3545.113281 3451.128662,3538.462158 
	C3459.113037,3526.238037 3458.395752,3516.792725 3449.085938,3505.635742 
	C3445.268311,3501.060547 3440.872070,3496.880859 3436.302246,3493.040527 
	C3428.656738,3486.614990 3420.779785,3480.447998 3412.793945,3474.446533 
	C3322.791748,3406.808350 3232.761963,3339.206787 3142.695068,3271.654297 
	C3136.310059,3266.865234 3129.744629,3262.271240 3122.975586,3258.046875 
	C3081.737793,3232.311768 3040.527588,3206.529541 2999.100830,3181.100830 
	C2911.125244,3127.100098 2822.000977,3075.140625 2729.002930,3030.106934 
	C2716.387451,3023.997803 2703.546143,3018.749023 2689.990967,3015.032959 
	C2670.648682,3009.729980 2652.424316,3001.698242 2635.188965,2991.338379 
	C2628.952393,2987.589355 2622.324951,2984.277588 2615.516357,2981.725586 
	C2551.947998,2957.894531 2487.731689,2936.070312 2422.181152,2918.192871 
	C2317.111328,2889.537109 2210.438477,2870.620850 2101.601074,2865.226562 
	C2018.848267,2861.125000 1936.516357,2865.647461 1854.650024,2879.157715 
	C1747.519409,2896.836670 1644.932373,2928.737061 1547.469604,2976.516602 
	C1396.457886,3050.547363 1275.878418,3158.197998 1189.756836,3303.334229 
	C1170.739258,3335.383789 1152.975708,3368.134277 1137.022217,3404.503662 
	C1115.042725,3445.807129 1104.690918,3491.248535 1091.861816,3535.632812 
	C1085.128418,3558.927734 1084.027466,3583.850586 1078.670654,3610.649414 
z"/>
<path fill="#CED5E0" opacity="1.000000" stroke="none" 
	d="
M6812.465332,3193.317627 
	C6820.215820,3192.266846 6824.356934,3197.694336 6827.407715,3203.592041 
	C6834.418945,3217.146240 6841.064941,3230.902100 6847.446777,3244.766113 
	C6856.868164,3265.235107 6865.935059,3285.867188 6875.139648,3306.435547 
	C6876.495605,3309.464844 6878.122559,3312.187500 6881.149902,3313.719238 
	C6885.951172,3309.048096 6883.724609,3304.663818 6882.260254,3300.496582 
	C6874.131348,3277.364990 6866.635742,3253.972900 6857.492188,3231.245850 
	C6847.601562,3206.662109 6836.169434,3182.697510 6825.347656,3158.490723 
	C6820.740723,3148.185059 6815.792969,3138.001465 6816.460938,3124.624023 
	C6820.940918,3128.818115 6826.013184,3134.245117 6829.276855,3140.601074 
	C6837.173340,3155.981689 6844.937500,3171.503906 6851.483887,3187.489502 
	C6870.662109,3234.314209 6888.173828,3281.765381 6903.300293,3330.083496 
	C6907.470703,3343.404053 6913.112793,3356.270752 6917.112305,3369.635254 
	C6920.138672,3379.747070 6921.626953,3390.319092 6922.930176,3402.962891 
	C6920.295410,3408.255371 6921.393066,3410.391846 6924.143555,3412.020996 
	C6925.477539,3416.185303 6927.000977,3420.300537 6928.099609,3424.526611 
	C6929.503906,3429.929688 6930.564941,3435.422119 6930.753418,3443.371094 
	C6929.127930,3447.726074 6928.109863,3449.560791 6927.997070,3451.449707 
	C6927.663574,3457.027832 6924.666016,3459.744629 6919.376953,3460.401367 
	C6909.625488,3431.552734 6900.351074,3402.531738 6890.024902,3373.890137 
	C6867.918457,3312.573730 6840.274902,3253.619141 6812.465332,3193.317627 
M6884.974609,3323.193359 
	C6885.468262,3323.867432 6885.961914,3324.541504 6886.455078,3325.215820 
	C6886.349121,3324.273682 6886.242676,3323.331543 6884.974609,3323.193359 
z"/>
<path fill="#616E85" opacity="1.000000" stroke="none" 
	d="
M567.860779,3528.554199 
	C569.856323,3533.615479 571.177368,3539.464600 571.338257,3545.345215 
	C572.614685,3592.003662 568.248291,3638.347900 564.280029,3684.779785 
	C560.711304,3726.536377 559.861755,3768.440430 565.344055,3810.300537 
	C568.275513,3832.683838 570.427734,3855.322021 570.633057,3877.865967 
	C570.834839,3900.018799 573.188782,3921.612549 578.272583,3943.070312 
	C581.492188,3956.659424 584.927002,3970.255127 587.034668,3984.036133 
	C589.745544,4001.761719 591.223389,4019.675781 591.985229,4038.532959 
	C587.162354,4037.735107 583.586853,4035.913086 580.011353,4034.091309 
	C573.966553,4011.662842 567.820984,3989.261230 561.962585,3966.784424 
	C560.803284,3962.336182 560.221619,3957.594727 560.274414,3952.998779 
	C560.495667,3933.735840 559.687317,3914.531494 561.687195,3895.187988 
	C563.091003,3881.610352 559.785706,3867.534912 558.470642,3853.692139 
	C557.781433,3846.437012 556.161072,3839.207520 556.137268,3831.962646 
	C555.964355,3779.325928 555.833435,3726.686523 556.290283,3674.052979 
	C556.416626,3659.496582 558.778748,3644.971680 559.740845,3630.407227 
	C560.703003,3615.841553 560.023376,3601.299805 562.764526,3586.683350 
	C565.067322,3574.404297 563.584961,3561.446045 564.212708,3548.810059 
	C564.536072,3542.301270 565.806396,3535.839600 567.860779,3528.554199 
z"/>
<path fill="#1C232F" opacity="1.000000" stroke="none" 
	d="
M579.944458,4036.010986 
	C583.586853,4035.913086 587.162354,4037.735107 591.774292,4040.168945 
	C609.910522,4089.367432 627.017822,4137.951660 644.102356,4186.543945 
	C646.730347,4194.018555 649.254089,4201.530762 651.697876,4210.559082 
	C645.630188,4211.789551 642.064758,4208.600098 640.354248,4203.020996 
	C638.835022,4198.066406 637.709412,4192.895508 635.446655,4188.293945 
	C633.618958,4184.576660 630.356079,4181.564453 627.141357,4177.494629 
	C619.518311,4188.419434 629.318359,4197.299316 626.720581,4208.113281 
	C624.255920,4207.217773 621.608521,4204.939453 620.415833,4202.059082 
	C602.711853,4159.303223 589.163696,4115.375977 583.692688,4069.226562 
	C582.455505,4058.790527 581.151062,4048.362305 579.944458,4036.010986 
z"/>
<path fill="#90A1B9" opacity="1.000000" stroke="none" 
	d="
M6919.213379,3462.036377 
	C6924.666016,3459.744629 6927.663574,3457.027832 6927.997070,3451.449707 
	C6928.109863,3449.560791 6929.127930,3447.726074 6930.785156,3444.929199 
	C6937.097656,3449.589844 6937.884277,3457.024170 6939.792969,3463.925049 
	C6946.336914,3487.591553 6949.515625,3511.831543 6951.999023,3536.209961 
	C6952.935547,3545.399658 6954.272461,3554.682861 6956.755859,3563.551270 
	C6960.979492,3578.635986 6958.338867,3592.341309 6949.899414,3606.572754 
	C6947.259766,3599.135498 6945.644531,3590.672363 6943.837891,3582.250244 
	C6940.923340,3568.664062 6937.898926,3555.101562 6934.888184,3541.536133 
	C6933.021973,3533.125488 6930.919922,3524.763184 6929.231934,3516.317871 
	C6925.729004,3498.790771 6922.431641,3481.222656 6919.213379,3462.036377 
z"/>
<path fill="#90A1B9" opacity="1.000000" stroke="none" 
	d="
M6924.850586,3411.348633 
	C6921.393066,3410.391846 6920.295410,3408.255371 6922.895020,3404.621582 
	C6926.393555,3405.664795 6926.876953,3407.923584 6924.850586,3411.348633 
z"/>
<path fill="#184FA3" opacity="1.000000" stroke="none" 
	d="
M4279.378418,3763.858887 
	C4282.640137,3759.768555 4285.525879,3755.298340 4289.220703,3751.645508 
	C4333.780762,3707.586914 4377.637207,3662.773438 4423.287598,3619.869873 
	C4506.340820,3541.813965 4592.245605,3467.023926 4682.748047,3397.559814 
	C4767.449707,3332.547607 4855.299805,3272.299316 4947.772461,3218.932373 
	C5046.159180,3162.152588 5148.668457,3114.386475 5257.273438,3080.361572 
	C5311.347656,3063.420654 5366.370117,3050.089111 5422.259766,3041.024658 
	C5468.897461,3033.460938 5515.839355,3027.663330 5563.258301,3027.131104 
	C5577.217773,3026.974609 5591.173340,3024.714111 5605.114746,3024.868164 
	C5654.397461,3025.411865 5703.494629,3028.305420 5752.420898,3035.109863 
	C5822.731445,3044.887939 5890.712891,3062.736816 5956.371582,3089.635986 
	C6023.357422,3117.078857 6085.447754,3153.041504 6143.010742,3196.848633 
	C6176.993164,3222.710205 6209.393066,3250.404297 6238.899902,3281.356934 
	C6283.277832,3327.909180 6321.060059,3379.291260 6352.026855,3435.687744 
	C6374.854980,3477.263184 6392.912109,3520.972168 6409.983398,3565.109619 
	C6412.844727,3572.508057 6414.329590,3580.457031 6416.218750,3588.208008 
	C6417.790039,3594.655273 6418.101074,3601.558838 6420.559570,3607.615234 
	C6431.758789,3635.205566 6432.872559,3664.540771 6437.056152,3693.463379 
	C6444.145020,3742.478516 6445.951660,3791.585449 6444.007324,3840.943848 
	C6443.850098,3844.933105 6443.376953,3848.909424 6441.761719,3853.352051 
	C6440.178223,3851.230225 6440.182617,3848.567627 6439.513672,3846.085938 
	C6438.648438,3842.872559 6437.064453,3840.078857 6431.415527,3842.097412 
	C6430.364258,3855.676758 6429.265625,3869.872314 6427.191895,3885.110840 
	C6425.314941,3892.761963 6424.413574,3899.369629 6422.422852,3907.049316 
	C6415.636719,3918.005371 6410.913574,3928.479492 6410.058105,3939.815674 
	C6409.380371,3948.789795 6406.132812,3956.425537 6402.548340,3964.301270 
	C6397.341309,3975.742432 6391.744141,3987.167480 6391.920898,4001.605957 
	C6388.555176,4008.950928 6385.815430,4015.017822 6383.002930,4021.051025 
	C6331.862793,4130.757812 6261.409668,4225.752930 6167.526367,4302.696289 
	C6077.151855,4376.763184 5975.651367,4429.523926 5862.654785,4459.652344 
	C5817.635742,4471.656250 5772.460449,4483.257324 5725.818359,4487.297852 
	C5686.751465,4490.681641 5647.676758,4494.031250 5608.563477,4496.798340 
	C5598.699707,4497.496094 5588.637695,4496.283203 5578.732422,4495.290527 
	C5563.546875,4493.768066 5548.421387,4491.657227 5533.266602,4489.830078 
	C5522.719238,4488.558105 5512.175781,4486.408691 5501.613281,4486.298340 
	C5480.211426,4486.074219 5459.170410,4483.733398 5438.127930,4479.890137 
	C5387.046387,4470.560059 5336.137695,4460.772949 5286.247559,4445.937988 
	C5150.742188,4405.645020 5023.788086,4346.529785 4903.124023,4273.390137 
	C4779.174316,4198.259766 4664.104004,4111.064453 4554.344238,4016.638428 
	C4466.937500,3941.442871 4383.676270,3861.759277 4300.054688,3782.459473 
	C4293.329590,3776.082520 4286.278320,3770.051025 4279.378418,3763.858887 
z"/>
<path fill="#FDFDFD" opacity="1.000000" stroke="none" 
	d="
M4278.356445,3764.665039 
	C4286.278320,3770.051025 4293.329590,3776.082520 4300.054688,3782.459473 
	C4383.676270,3861.759277 4466.937500,3941.442871 4554.344238,4016.638428 
	C4664.104004,4111.064453 4779.174316,4198.259766 4903.124023,4273.390137 
	C5023.788086,4346.529785 5150.742188,4405.645020 5286.247559,4445.937988 
	C5336.137695,4460.772949 5387.046387,4470.560059 5438.127930,4479.890137 
	C5459.170410,4483.733398 5480.211426,4486.074219 5501.613281,4486.298340 
	C5512.175781,4486.408691 5522.719238,4488.558105 5533.266602,4489.830078 
	C5548.421387,4491.657227 5563.546875,4493.768066 5578.732422,4495.290527 
	C5588.637695,4496.283203 5598.699707,4497.496094 5608.563477,4496.798340 
	C5647.676758,4494.031250 5686.751465,4490.681641 5725.818359,4487.297852 
	C5772.460449,4483.257324 5817.635742,4471.656250 5862.654785,4459.652344 
	C5975.651367,4429.523926 6077.151855,4376.763184 6167.526367,4302.696289 
	C6261.409668,4225.752930 6331.862793,4130.757812 6383.002930,4021.051025 
	C6385.815430,4015.017822 6388.555176,4008.950928 6393.270508,4001.272949 
	C6406.404297,3989.683105 6408.954102,3975.925293 6411.410645,3962.217041 
	C6412.126953,3958.220459 6412.308105,3954.262207 6416.365723,3953.734375 
	C6416.585449,3963.968506 6416.473633,3972.413818 6416.941895,3980.826904 
	C6417.221680,3985.871582 6418.408203,3990.865723 6419.187500,3995.882568 
	C6418.879395,3997.574951 6418.571289,3999.267578 6416.443848,4002.572998 
	C6400.966309,4019.398438 6398.796875,4037.645264 6400.685059,4056.963623 
	C6393.148926,4077.565674 6386.207520,4098.408203 6377.971191,4118.726562 
	C6347.388184,4194.172363 6303.283691,4261.245117 6250.183594,4322.606445 
	C6134.293457,4456.527832 5991.739746,4549.300781 5821.910156,4599.987305 
	C5814.302734,4602.258301 5806.761230,4605.081055 5799.637695,4608.563965 
	C5788.143555,4614.183594 5776.135742,4617.531738 5763.590332,4619.732422 
	C5748.541504,4622.372070 5733.553223,4625.467773 5718.676758,4628.956543 
	C5698.569336,4633.672363 5678.325195,4637.291992 5657.753906,4639.226074 
	C5647.153809,4640.222656 5636.558105,4641.509766 5626.055176,4643.240723 
	C5570.634766,4652.375977 5514.792480,4654.687012 5458.755371,4653.802246 
	C5375.243164,4652.483887 5292.809570,4641.788574 5211.004883,4625.406250 
	C5197.987793,4622.799316 5184.523926,4622.461914 5171.465332,4620.015137 
	C5158.446777,4617.576172 5145.582031,4614.143066 5132.826172,4610.521973 
	C5119.404297,4606.711426 5106.341309,4601.599609 5092.865234,4598.023438 
	C4979.246094,4567.876953 4870.491699,4524.981445 4764.872559,4473.723633 
	C4619.535156,4403.190918 4482.230957,4319.233887 4350.269531,4226.296387 
	C4258.745605,4161.837891 4169.673828,4094.103516 4081.512939,4025.156494 
	C4075.267334,4020.272217 4069.331787,4014.751221 4064.232422,4008.699951 
	C4057.526123,4000.740479 4057.189209,3991.428711 4062.967285,3982.792725 
	C4066.999512,3976.765381 4071.886230,3971.191406 4077.012939,3966.032959 
	C4133.375977,3909.324463 4189.923828,3852.799316 4246.256836,3796.061035 
	C4256.502441,3785.741699 4264.880371,3773.547119 4278.356445,3764.665039 
z"/>
<path fill="#B6BBC5" opacity="1.000000" stroke="none" 
	d="
M6420.064453,3994.709473 
	C6418.408203,3990.865723 6417.221680,3985.871582 6416.941895,3980.826904 
	C6416.473633,3972.413818 6416.585449,3963.968506 6417.908203,3953.365967 
	C6423.678711,3949.181641 6424.009766,3945.262451 6423.972656,3941.273926 
	C6423.864746,3929.508057 6423.671387,3917.742676 6423.511719,3905.977295 
	C6424.413574,3899.369629 6425.314941,3892.761963 6428.513672,3885.098389 
	C6433.453125,3884.031006 6436.096680,3884.019287 6438.739746,3884.007568 
	C6436.634766,3918.464844 6434.960938,3952.986328 6423.862305,3986.129883 
	C6423.021484,3988.643066 6421.920898,3991.069580 6420.064453,3994.709473 
z"/>
<path fill="#393C3F" opacity="1.000000" stroke="none" 
	d="
M659.248291,4232.919922 
	C663.627625,4238.096680 667.421753,4244.068359 670.497803,4250.389648 
	C678.740906,4267.329590 686.676086,4284.418945 694.817505,4302.877930 
	C688.485291,4303.110840 684.969666,4298.252930 681.488953,4293.479492 
	C668.501221,4275.671387 659.998108,4256.095215 659.248291,4232.919922 
z"/>
<path fill="#B6BBC5" opacity="1.000000" stroke="none" 
	d="
M6401.915039,4056.265137 
	C6398.796875,4037.645264 6400.966309,4019.398438 6415.832031,4003.715576 
	C6419.001465,4022.436523 6412.770996,4039.452393 6401.915039,4056.265137 
z"/>
<path fill="#B3BECF" opacity="1.000000" stroke="none" 
	d="
M6439.217773,3882.521973 
	C6436.096680,3884.019287 6433.453125,3884.031006 6429.488281,3884.055176 
	C6429.265625,3869.872314 6430.364258,3855.676758 6431.415527,3842.097412 
	C6437.064453,3840.078857 6438.648438,3842.872559 6439.513672,3846.085938 
	C6440.182617,3848.567627 6440.178223,3851.230225 6440.982422,3855.101074 
	C6440.893555,3864.605225 6440.294434,3872.821045 6439.217773,3882.521973 
z"/>
<path fill="#184FA3" opacity="1.000000" stroke="none" 
	d="
M3236.482910,3754.007080 
	C3221.445557,3771.724609 3207.575928,3790.620605 3191.130615,3806.917480 
	C3155.652344,3842.073975 3119.114258,3876.178467 3082.531982,3910.199463 
	C3023.001709,3965.561768 2962.319092,4019.628662 2899.292725,4071.025635 
	C2781.841064,4166.807129 2657.689697,4252.609375 2525.113281,4326.361328 
	C2483.058838,4349.755859 2438.750000,4367.633301 2395.114014,4387.213867 
	C2351.991699,4406.563965 2307.865723,4423.525879 2262.660400,4437.554688 
	C2223.209961,4449.797852 2183.107910,4459.419434 2142.791992,4468.271484 
	C2080.228271,4482.007812 2016.990723,4491.018066 1953.056396,4494.612305 
	C1901.072754,4497.535645 1849.215820,4495.582520 1797.509277,4488.914062 
	C1715.888428,4478.388184 1636.485474,4459.076660 1560.275024,4427.985352 
	C1362.258789,4347.200195 1220.080566,4207.923828 1130.959595,4014.224854 
	C1102.656006,3952.708496 1086.528564,3887.573242 1078.995728,3820.191162 
	C1075.429321,3788.288574 1075.363403,3756.376709 1076.336670,3721.541504 
	C1079.571655,3713.808838 1082.314453,3709.092285 1083.127441,3704.064209 
	C1087.169678,3679.063477 1092.832397,3654.226318 1092.548950,3627.230957 
	C1096.649536,3614.602539 1101.467773,3603.599854 1103.369263,3592.113770 
	C1104.982422,3582.369629 1107.057373,3572.928955 1109.988525,3563.556641 
	C1111.139526,3559.875977 1111.358643,3555.903320 1112.653076,3550.824463 
	C1117.582886,3540.619873 1123.150635,3532.014648 1125.781250,3522.589355 
	C1128.464233,3512.976807 1129.680786,3503.280518 1137.033081,3495.566162 
	C1139.052246,3493.447998 1139.439697,3489.447266 1139.883179,3486.215088 
	C1141.294312,3475.929932 1146.073242,3467.631348 1152.814575,3459.800537 
	C1157.462280,3454.401611 1161.650879,3447.896240 1163.746582,3441.169189 
	C1167.387085,3429.484619 1173.214233,3419.302979 1180.198853,3409.490723 
	C1188.692749,3397.558594 1196.737305,3385.306885 1205.223389,3373.369141 
	C1247.119629,3314.432373 1295.719116,3261.593262 1351.427246,3215.539795 
	C1408.689697,3168.201172 1471.227173,3129.310547 1539.526855,3099.567383 
	C1635.191650,3057.907471 1735.491211,3035.453613 1839.085693,3028.898926 
	C1910.831177,3024.359131 1982.786499,3025.034180 2054.341553,3035.394531 
	C2089.907227,3040.543701 2125.314697,3046.343750 2160.328613,3054.333008 
	C2229.244873,3070.058105 2296.333008,3091.656006 2361.771729,3118.351562 
	C2374.081543,3123.373535 2385.691406,3130.638916 2398.382324,3134.048096 
	C2410.809326,3137.386719 2422.188965,3142.489014 2433.379150,3148.206055 
	C2473.092529,3168.496582 2513.010498,3188.439941 2552.116699,3209.855713 
	C2629.316895,3252.133545 2702.569580,3300.718262 2773.863770,3352.226562 
	C2884.146484,3431.902100 2987.041260,3520.494385 3086.466309,3613.184326 
	C3124.950684,3649.061768 3162.681641,3685.746826 3200.905762,3721.905029 
	C3212.506348,3732.878662 3224.609863,3743.321289 3236.482910,3754.007080 
z"/>
<path fill="#06080A" opacity="1.000000" stroke="none" 
	d="
M3237.786621,3753.405273 
	C3224.609863,3743.321289 3212.506348,3732.878662 3200.905762,3721.905029 
	C3162.681641,3685.746826 3124.950684,3649.061768 3086.466309,3613.184326 
	C2987.041260,3520.494385 2884.146484,3431.902100 2773.863770,3352.226562 
	C2702.569580,3300.718262 2629.316895,3252.133545 2552.116699,3209.855713 
	C2513.010498,3188.439941 2473.092529,3168.496582 2433.379150,3148.206055 
	C2422.188965,3142.489014 2410.809326,3137.386719 2398.382324,3134.048096 
	C2385.691406,3130.638916 2374.081543,3123.373535 2361.771729,3118.351562 
	C2296.333008,3091.656006 2229.244873,3070.058105 2160.328613,3054.333008 
	C2125.314697,3046.343750 2089.907227,3040.543701 2054.341553,3035.394531 
	C1982.786499,3025.034180 1910.831177,3024.359131 1839.085693,3028.898926 
	C1735.491211,3035.453613 1635.191650,3057.907471 1539.526855,3099.567383 
	C1471.227173,3129.310547 1408.689697,3168.201172 1351.427246,3215.539795 
	C1295.719116,3261.593262 1247.119629,3314.432373 1205.223389,3373.369141 
	C1196.737305,3385.306885 1188.692749,3397.558594 1180.198853,3409.490723 
	C1173.214233,3419.302979 1167.387085,3429.484619 1163.746582,3441.169189 
	C1161.650879,3447.896240 1157.462280,3454.401611 1152.814575,3459.800537 
	C1146.073242,3467.631348 1141.294312,3475.929932 1139.883179,3486.215088 
	C1139.439697,3489.447266 1139.052246,3493.447998 1137.033081,3495.566162 
	C1129.680786,3503.280518 1128.464233,3512.976807 1125.781250,3522.589355 
	C1123.150635,3532.014648 1117.582886,3540.619873 1111.151855,3550.812500 
	C1106.590088,3551.461670 1104.180908,3550.884033 1100.987549,3550.118164 
	C1102.011230,3544.670898 1103.123169,3540.280273 1103.626831,3535.820557 
	C1106.457275,3510.762451 1111.536377,3486.683594 1123.281494,3463.696289 
	C1132.815796,3445.036133 1139.571655,3424.663818 1139.357910,3402.947998 
	C1152.975708,3368.134277 1170.739258,3335.383789 1189.756836,3303.334229 
	C1275.878418,3158.197998 1396.457886,3050.547363 1547.469604,2976.516602 
	C1644.932373,2928.737061 1747.519409,2896.836670 1854.650024,2879.157715 
	C1936.516357,2865.647461 2018.848267,2861.125000 2101.601074,2865.226562 
	C2210.438477,2870.620850 2317.111328,2889.537109 2422.181152,2918.192871 
	C2487.731689,2936.070312 2551.947998,2957.894531 2615.516357,2981.725586 
	C2622.324951,2984.277588 2628.952393,2987.589355 2635.188965,2991.338379 
	C2652.424316,3001.698242 2670.648682,3009.729980 2689.990967,3015.032959 
	C2703.546143,3018.749023 2716.387451,3023.997803 2729.002930,3030.106934 
	C2822.000977,3075.140625 2911.125244,3127.100098 2999.100830,3181.100830 
	C3040.527588,3206.529541 3081.737793,3232.311768 3122.975586,3258.046875 
	C3129.744629,3262.271240 3136.310059,3266.865234 3142.695068,3271.654297 
	C3232.761963,3339.206787 3322.791748,3406.808350 3412.793945,3474.446533 
	C3420.779785,3480.447998 3428.656738,3486.614990 3436.302246,3493.040527 
	C3440.872070,3496.880859 3445.268311,3501.060547 3449.085938,3505.635742 
	C3458.395752,3516.792725 3459.113037,3526.238037 3451.128662,3538.462158 
	C3446.784668,3545.113281 3441.705811,3551.431641 3436.169434,3557.134277 
	C3386.970215,3607.812012 3337.843262,3658.564941 3288.123535,3708.729248 
	C3272.678467,3724.312256 3255.483643,3738.160889 3237.786621,3753.405273 
z"/>
<path fill="#2D333F" opacity="1.000000" stroke="none" 
	d="
M1138.190063,3403.725830 
	C1139.571655,3424.663818 1132.815796,3445.036133 1123.281494,3463.696289 
	C1111.536377,3486.683594 1106.457275,3510.762451 1103.626831,3535.820557 
	C1103.123169,3540.280273 1102.011230,3544.670898 1100.987549,3550.118164 
	C1104.180908,3550.884033 1106.590088,3551.461670 1110.500610,3552.051758 
	C1111.358643,3555.903320 1111.139526,3559.875977 1109.988525,3563.556641 
	C1107.057373,3572.928955 1104.982422,3582.369629 1103.369263,3592.113770 
	C1101.467773,3603.599854 1096.649536,3614.602539 1091.327759,3626.507812 
	C1087.670044,3623.518066 1085.715332,3619.866699 1083.912598,3616.141846 
	C1082.630005,3613.491943 1081.552124,3610.743164 1080.382935,3608.038330 
	C1084.027466,3583.850586 1085.128418,3558.927734 1091.861816,3535.632812 
	C1104.690918,3491.248535 1115.042725,3445.807129 1138.190063,3403.725830 
z"/>
<path fill="#46566D" opacity="1.000000" stroke="none" 
	d="
M1079.526855,3609.343750 
	C1081.552124,3610.743164 1082.630005,3613.491943 1083.912598,3616.141846 
	C1085.715332,3619.866699 1087.670044,3623.518066 1090.780884,3627.923828 
	C1092.832397,3654.226318 1087.169678,3679.063477 1083.127441,3704.064209 
	C1082.314453,3709.092285 1079.571655,3713.808838 1076.560303,3719.727051 
	C1074.714111,3718.947754 1073.547729,3717.145508 1073.409546,3715.267822 
	C1070.827881,3680.183105 1070.697754,3645.208252 1079.526855,3609.343750 
z"/>
<path fill="#FEFEFE" opacity="1.000000" stroke="none" 
	d="
M6885.555664,3322.791504 
	C6886.242676,3323.331543 6886.349121,3324.273682 6886.455078,3325.215820 
	C6885.961914,3324.541504 6885.468262,3323.867432 6885.555664,3322.791504 
z"/>
<path fill="#B3BECF" opacity="1.000000" stroke="none" 
	d="
M6422.422852,3907.049316 
	C6423.671387,3917.742676 6423.864746,3929.508057 6423.972656,3941.273926 
	C6424.009766,3945.262451 6423.678711,3949.181641 6417.820312,3951.563477 
	C6412.308105,3954.262207 6412.126953,3958.220459 6411.410645,3962.217041 
	C6408.954102,3975.925293 6406.404297,3989.683105 6393.862793,3999.979004 
	C6391.744141,3987.167480 6397.341309,3975.742432 6402.548340,3964.301270 
	C6406.132812,3956.425537 6409.380371,3948.789795 6410.058105,3939.815674 
	C6410.913574,3928.479492 6415.636719,3918.005371 6422.422852,3907.049316 
z"/>
</svg>