<svg xmlns="http://www.w3.org/2000/svg" xmlns:xlink="http://www.w3.org/1999/xlink" width="500" zoomAndPan="magnify" viewBox="0 0 375 374.999991" height="500" preserveAspectRatio="xMidYMid meet" version="1.0"><defs><g/><clipPath id="904e85d64f"><path d="M 187.5 0 C 83.945312 0 0 83.945312 0 187.5 C 0 291.054688 83.945312 375 187.5 375 C 291.054688 375 375 291.054688 375 187.5 C 375 83.945312 291.054688 0 187.5 0 Z M 187.5 0 " clip-rule="nonzero"/></clipPath><clipPath id="f411f960cb"><path d="M 19.738281 19.738281 L 355.261719 19.738281 L 355.261719 355.261719 L 19.738281 355.261719 Z M 19.738281 19.738281 " clip-rule="nonzero"/></clipPath><clipPath id="63b7ff7b57"><path d="M 187.5 19.738281 C 94.847656 19.738281 19.738281 94.847656 19.738281 187.5 C 19.738281 280.152344 94.847656 355.261719 187.5 355.261719 C 280.152344 355.261719 355.261719 280.152344 355.261719 187.5 C 355.261719 94.847656 280.152344 19.738281 187.5 19.738281 Z M 187.5 19.738281 " clip-rule="nonzero"/></clipPath><clipPath id="705a4c01fa"><path d="M 19.738281 19.738281 L 354.988281 19.738281 L 354.988281 354.988281 L 19.738281 354.988281 Z M 19.738281 19.738281 " clip-rule="nonzero"/></clipPath><clipPath id="fd83184644"><path d="M 187.496094 19.738281 C 94.847656 19.738281 19.738281 94.847656 19.738281 187.496094 C 19.738281 280.148438 94.847656 355.257812 187.496094 355.257812 C 280.148438 355.257812 355.257812 280.148438 355.257812 187.496094 C 355.257812 94.847656 280.148438 19.738281 187.496094 19.738281 Z M 187.496094 19.738281 " clip-rule="nonzero"/></clipPath><clipPath id="81cf65e7ea"><path d="M 67.273438 67.273438 L 307.726562 67.273438 L 307.726562 307.726562 L 67.273438 307.726562 Z M 67.273438 67.273438 " clip-rule="nonzero"/></clipPath><clipPath id="4deb4c4c47"><path d="M 187.5 67.273438 C 121.101562 67.273438 67.273438 121.101562 67.273438 187.5 C 67.273438 253.898438 121.101562 307.726562 187.5 307.726562 C 253.898438 307.726562 307.726562 253.898438 307.726562 187.5 C 307.726562 121.101562 253.898438 67.273438 187.5 67.273438 Z M 187.5 67.273438 " clip-rule="nonzero"/></clipPath><clipPath id="15f594b3e8"><path d="M 67.273438 67.273438 L 307.71875 67.273438 L 307.71875 307.71875 L 67.273438 307.71875 Z M 67.273438 67.273438 " clip-rule="nonzero"/></clipPath><clipPath id="3c1cda8474"><path d="M 187.496094 67.273438 C 121.097656 67.273438 67.273438 121.097656 67.273438 187.496094 C 67.273438 253.894531 121.097656 307.71875 187.496094 307.71875 C 253.894531 307.71875 307.71875 253.894531 307.71875 187.496094 C 307.71875 121.097656 253.894531 67.273438 187.496094 67.273438 Z M 187.496094 67.273438 " clip-rule="nonzero"/></clipPath><clipPath id="1a2f09b566"><path d="M 86.300781 86.300781 L 288.699219 86.300781 L 288.699219 288.699219 L 86.300781 288.699219 Z M 86.300781 86.300781 " clip-rule="nonzero"/></clipPath><clipPath id="973d1762a7"><path d="M 187.5 86.300781 C 131.609375 86.300781 86.300781 131.609375 86.300781 187.5 C 86.300781 243.390625 131.609375 288.699219 187.5 288.699219 C 243.390625 288.699219 288.699219 243.390625 288.699219 187.5 C 288.699219 131.609375 243.390625 86.300781 187.5 86.300781 Z M 187.5 86.300781 " clip-rule="nonzero"/></clipPath><clipPath id="0eff61b366"><path d="M 86.300781 86.300781 L 288.695312 86.300781 L 288.695312 288.695312 L 86.300781 288.695312 Z M 86.300781 86.300781 " clip-rule="nonzero"/></clipPath><clipPath id="e4ac2f6089"><path d="M 187.5 86.300781 C 131.609375 86.300781 86.300781 131.609375 86.300781 187.5 C 86.300781 243.390625 131.609375 288.695312 187.5 288.695312 C 243.390625 288.695312 288.695312 243.390625 288.695312 187.5 C 288.695312 131.609375 243.390625 86.300781 187.5 86.300781 Z M 187.5 86.300781 " clip-rule="nonzero"/></clipPath><clipPath id="135451c34e"><path d="M 23.128906 162.5625 L 77.382812 162.5625 L 77.382812 212.4375 L 23.128906 212.4375 Z M 23.128906 162.5625 " clip-rule="nonzero"/></clipPath><clipPath id="13cb459e81"><path d="M 297.746094 162.5625 L 352 162.5625 L 352 212.4375 L 297.746094 212.4375 Z M 297.746094 162.5625 " clip-rule="nonzero"/></clipPath><clipPath id="04889c3b72"><path d="M 24.429688 176.464844 L 68.679688 176.464844 L 68.679688 198.214844 L 24.429688 198.214844 Z M 24.429688 176.464844 " clip-rule="nonzero"/></clipPath><clipPath id="18da2a10d7"><path d="M 305.800781 176.464844 L 350 176.464844 L 350 198.214844 L 305.800781 198.214844 Z M 305.800781 176.464844 " clip-rule="nonzero"/></clipPath></defs><g clip-path="url(#904e85d64f)"><rect x="-37.5" width="450" fill="#ffffff" y="-37.499999" height="449.999989" fill-opacity="1"/><path stroke-linecap="butt" transform="matrix(0.75, 0, 0, 0.75, 0.0000045, -0.000000000000042633)" fill="none" stroke-linejoin="miter" d="M 249.999994 0.000000000000056843 C 111.927078 0.000000000000056843 -0.000006 111.927084 -0.000006 250 C -0.000006 388.072917 111.927078 500.000001 249.999994 500.000001 C 388.072911 500.000001 499.999995 388.072917 499.999995 250 C 499.999995 111.927084 388.072911 0.000000000000056843 249.999994 0.000000000000056843 Z M 249.999994 0.000000000000056843 " stroke="#000000" stroke-width="28" stroke-opacity="1" stroke-miterlimit="4"/></g><g clip-path="url(#f411f960cb)"><g clip-path="url(#63b7ff7b57)"><path fill="#ffffff" d="M 19.738281 19.738281 L 355.261719 19.738281 L 355.261719 355.261719 L 19.738281 355.261719 Z M 19.738281 19.738281 " fill-opacity="1" fill-rule="nonzero"/></g></g><g clip-path="url(#705a4c01fa)"><g clip-path="url(#fd83184644)"><path stroke-linecap="butt" transform="matrix(0.75, 0, 0, 0.75, 19.73739, 19.737386)" fill="none" stroke-linejoin="miter" d="M 223.678286 0.0011939 C 100.147028 0.0011939 0.0011879 100.147034 0.0011879 223.678292 C 0.0011879 347.214758 100.147028 447.360598 223.678286 447.360598 C 347.214752 447.360598 447.360592 347.214758 447.360592 223.678292 C 447.360592 100.147034 347.214752 0.0011939 223.678286 0.0011939 Z M 223.678286 0.0011939 " stroke="#000000" stroke-width="8" stroke-opacity="1" stroke-miterlimit="4"/></g></g><g clip-path="url(#81cf65e7ea)"><g clip-path="url(#4deb4c4c47)"><path fill="#ffffff" d="M 67.273438 67.273438 L 307.726562 67.273438 L 307.726562 307.726562 L 67.273438 307.726562 Z M 67.273438 67.273438 " fill-opacity="1" fill-rule="nonzero"/></g></g><g clip-path="url(#15f594b3e8)"><g clip-path="url(#3c1cda8474)"><path stroke-linecap="butt" transform="matrix(0.75, 0, 0, 0.75, 67.273961, 67.273956)" fill="none" stroke-linejoin="miter" d="M 160.296188 -0.000691843 C 71.764932 -0.000691843 -0.000697843 71.764938 -0.000697843 160.296194 C -0.000697843 248.827449 71.764932 320.593079 160.296188 320.593079 C 248.827443 320.593079 320.593073 248.827449 320.593073 160.296194 C 320.593073 71.764938 248.827443 -0.000691843 160.296188 -0.000691843 Z M 160.296188 -0.000691843 " stroke="#000000" stroke-width="28" stroke-opacity="1" stroke-miterlimit="4"/></g></g><g clip-path="url(#1a2f09b566)"><g clip-path="url(#973d1762a7)"><path fill="#ffffff" d="M 86.300781 86.300781 L 288.699219 86.300781 L 288.699219 288.699219 L 86.300781 288.699219 Z M 86.300781 86.300781 " fill-opacity="1" fill-rule="nonzero"/></g></g><g clip-path="url(#0eff61b366)"><g clip-path="url(#e4ac2f6089)"><path stroke-linecap="butt" transform="matrix(0.75, 0, 0, 0.75, 86.302067, 86.302062)" fill="none" stroke-linejoin="miter" d="M 134.930586 -0.00170811 C 60.409748 -0.00170811 -0.00171411 60.409754 -0.00171411 134.930592 C -0.00171411 209.451431 60.409748 269.857685 134.930586 269.857685 C 209.451425 269.857685 269.857679 209.451431 269.857679 134.930592 C 269.857679 60.409754 209.451425 -0.00170811 134.930586 -0.00170811 Z M 134.930586 -0.00170811 " stroke="#000000" stroke-width="8" stroke-opacity="1" stroke-miterlimit="4"/></g></g><g clip-path="url(#135451c34e)"><path fill="#000000" d="M 23.128906 162.5625 L 77.292969 162.5625 L 77.292969 212.4375 L 23.128906 212.4375 Z M 23.128906 162.5625 " fill-opacity="1" fill-rule="nonzero"/></g><g clip-path="url(#13cb459e81)"><path fill="#000000" d="M 297.746094 162.5625 L 351.910156 162.5625 L 351.910156 212.4375 L 297.746094 212.4375 Z M 297.746094 162.5625 " fill-opacity="1" fill-rule="nonzero"/></g><g clip-path="url(#04889c3b72)"><path fill="#ffffff" d="M 35.460938 176.464844 C 29.386719 176.464844 24.429688 181.421875 24.429688 187.496094 C 24.429688 193.574219 29.386719 198.53125 35.460938 198.53125 C 35.558594 198.53125 35.644531 198.53125 35.742188 198.507812 C 35.742188 198.507812 35.753906 198.507812 35.753906 198.496094 C 39.695312 198.367188 42.757812 195.601562 44.8125 192.9375 C 44.15625 191.9375 43.648438 191.03125 43.285156 190.339844 C 41.582031 192.832031 38.855469 195.773438 35.460938 195.773438 C 30.871094 195.773438 27.1875 192.085938 27.1875 187.496094 C 27.1875 182.90625 30.871094 179.222656 35.460938 179.222656 C 38.339844 179.222656 40.761719 181.269531 42.519531 183.511719 C 44.273438 185.761719 45.222656 188.023438 45.222656 188.023438 C 45.289062 188.175781 45.375 188.304688 45.480469 188.421875 C 45.632812 188.777344 46.496094 190.792969 48.359375 193.164062 C 50.382812 195.738281 53.445312 198.53125 57.496094 198.53125 C 63.574219 198.53125 68.550781 193.605469 68.5625 187.519531 C 68.570312 181.441406 63.636719 176.464844 57.558594 176.464844 C 57.453125 176.464844 57.355469 176.476562 57.269531 176.484375 C 53.347656 176.625 50.289062 179.371094 48.21875 182.023438 C 48.875 183.035156 49.371094 183.941406 49.726562 184.640625 C 51.441406 182.164062 54.175781 179.222656 57.558594 179.222656 C 62.140625 179.222656 65.8125 182.929688 65.804688 187.519531 C 65.792969 192.109375 62.097656 195.773438 57.496094 195.773438 C 54.75 195.773438 52.300781 193.726562 50.523438 191.460938 C 48.757812 189.199219 47.765625 186.925781 47.765625 186.925781 C 47.703125 186.785156 47.617188 186.65625 47.507812 186.550781 C 47.355469 186.183594 46.539062 184.1875 44.695312 181.828125 C 42.679688 179.242188 39.597656 176.464844 35.460938 176.464844 Z M 35.460938 176.464844 " fill-opacity="1" fill-rule="nonzero"/></g><g clip-path="url(#18da2a10d7)"><path fill="#ffffff" d="M 316.835938 176.464844 C 310.757812 176.464844 305.800781 181.421875 305.800781 187.496094 C 305.800781 193.574219 310.757812 198.53125 316.835938 198.53125 C 316.929688 198.53125 317.019531 198.53125 317.113281 198.507812 C 317.113281 198.507812 317.125 198.507812 317.125 198.496094 C 321.070312 198.367188 324.128906 195.601562 326.1875 192.9375 C 325.53125 191.9375 325.023438 191.03125 324.65625 190.339844 C 322.953125 192.832031 320.230469 195.773438 316.835938 195.773438 C 312.246094 195.773438 308.558594 192.085938 308.558594 187.496094 C 308.558594 182.90625 312.246094 179.222656 316.835938 179.222656 C 319.710938 179.222656 322.136719 181.269531 323.890625 183.511719 C 325.648438 185.761719 326.597656 188.023438 326.597656 188.023438 C 326.660156 188.175781 326.746094 188.304688 326.855469 188.421875 C 327.003906 188.777344 327.867188 190.792969 329.730469 193.164062 C 331.757812 195.738281 334.816406 198.53125 338.867188 198.53125 C 344.945312 198.53125 349.921875 193.605469 349.933594 187.519531 C 349.945312 181.441406 345.011719 176.464844 338.933594 176.464844 C 338.824219 176.464844 338.730469 176.476562 338.640625 176.484375 C 334.71875 176.625 331.660156 179.371094 329.589844 182.023438 C 330.25 183.035156 330.746094 183.941406 331.101562 184.640625 C 332.8125 182.164062 335.550781 179.222656 338.933594 179.222656 C 343.511719 179.222656 347.1875 182.929688 347.175781 187.519531 C 347.164062 192.109375 343.46875 195.773438 338.867188 195.773438 C 336.121094 195.773438 333.675781 193.726562 331.898438 191.460938 C 330.128906 189.199219 329.140625 186.925781 329.140625 186.925781 C 329.074219 186.785156 328.988281 186.65625 328.878906 186.550781 C 328.730469 186.183594 327.910156 184.1875 326.070312 181.828125 C 324.054688 179.242188 320.972656 176.464844 316.835938 176.464844 Z M 316.835938 176.464844 " fill-opacity="1" fill-rule="nonzero"/></g><g fill="#000000" fill-opacity="1"><g transform="translate(43.755185, 221.52701)"><g><path d="M 23.765625 16.875 L 6.234375 21.875 L 4.84375 17 L 14.515625 14.25 L 3.890625 13.6875 L 2.734375 9.609375 L 11.53125 3.484375 L 1.78125 6.265625 L 0.390625 1.390625 L 17.921875 -3.609375 L 19.609375 2.28125 L 9.46875 9.9375 L 22.09375 11 Z M 23.765625 16.875 "/></g></g></g><g fill="#000000" fill-opacity="1"><g transform="translate(50.991678, 245.911038)"><g><path d="M 8.15625 10.53125 L 5.4375 4.65625 L 2.328125 5.015625 L 0.078125 0.1875 L 19.421875 -1.46875 L 21.890625 3.828125 L 8.140625 17.53125 L 5.890625 12.671875 Z M 11.15625 7.734375 L 15.671875 3.46875 L 9.515625 4.1875 Z M 11.15625 7.734375 "/></g></g></g><g fill="#000000" fill-opacity="1"><g transform="translate(59.810959, 264.448447)"><g><path d="M 23.53125 3.140625 L 20.109375 5.296875 L 17.515625 1.171875 L 5.5 8.734375 L 2.796875 4.4375 L 14.8125 -3.125 L 12.25 -7.1875 L 15.671875 -9.34375 Z M 23.53125 3.140625 "/></g></g></g><g fill="#000000" fill-opacity="1"><g transform="translate(68.626109, 278.545595)"><g><path d="M 25.375 2.15625 L 11.28125 13.734375 L 8.0625 9.8125 L 13.71875 5.15625 L 9.796875 0.375 L 4.140625 5.03125 L 0.921875 1.125 L 15.015625 -10.453125 L 18.234375 -6.546875 L 12.9375 -2.203125 L 16.859375 2.578125 L 22.15625 -1.765625 Z M 25.375 2.15625 "/></g></g></g><g fill="#000000" fill-opacity="1"><g transform="translate(81.583062, 293.995501)"><g><path d="M 14.5 -5.75 L 12.4375 -3.59375 L 16.65625 0.4375 L 14 3.21875 L 9.78125 -0.8125 L 7.515625 1.5625 L 12.296875 6.125 L 9.484375 9.0625 L 1.046875 1 L 13.640625 -12.1875 L 22.078125 -4.125 L 19.28125 -1.1875 Z M 14.5 -5.75 "/></g></g></g><g fill="#000000" fill-opacity="1"><g transform="translate(92.459134, 304.756898)"><g><path d="M 29.109375 -1.5 L 18.453125 13.296875 L 14.34375 10.328125 L 20.21875 2.15625 L 11.546875 8.328125 L 8.09375 5.84375 L 11.203125 -4.421875 L 5.28125 3.8125 L 1.171875 0.84375 L 11.828125 -13.953125 L 16.8125 -10.359375 L 13.59375 1.921875 L 24.15625 -5.0625 Z M 29.109375 -1.5 "/></g></g></g><g fill="#000000" fill-opacity="1"><g transform="translate(113.259571, 319.396067)"><g><path d="M 12.921875 3.1875 L 7.140625 0.28125 L 4.9375 2.484375 L 0.1875 0.09375 L 14.328125 -13.1875 L 19.546875 -10.5625 L 17.265625 8.703125 L 12.46875 6.28125 Z M 13.5625 -0.859375 L 14.4375 -7 L 10.078125 -2.609375 Z M 13.5625 -0.859375 "/></g></g></g><g fill="#000000" fill-opacity="1"><g transform="translate(131.674457, 328.465198)"><g><path d="M 20.390625 -12.125 L 19.046875 -8.328125 L 14.46875 -9.953125 L 9.734375 3.4375 L 4.953125 1.75 L 9.6875 -11.640625 L 5.140625 -13.25 L 6.484375 -17.046875 Z M 20.390625 -12.125 "/></g></g></g><g fill="#000000" fill-opacity="1"><g transform="translate(147.089498, 333.713078)"><g><path d="M 10.90625 -16 L 6.3125 1.640625 L 1.40625 0.359375 L 6 -17.28125 Z M 10.90625 -16 "/></g></g></g><g fill="#000000" fill-opacity="1"><g transform="translate(155.506805, 336.163374)"><g><path d="M 2.234375 -8.921875 C 2.503906 -10.691406 3.117188 -12.210938 4.078125 -13.484375 C 5.046875 -14.765625 6.269531 -15.6875 7.75 -16.25 C 9.226562 -16.8125 10.851562 -16.953125 12.625 -16.671875 C 14.882812 -16.316406 16.6875 -15.421875 18.03125 -13.984375 C 19.375 -12.546875 20.109375 -10.753906 20.234375 -8.609375 L 14.84375 -9.453125 C 14.613281 -10.179688 14.242188 -10.769531 13.734375 -11.21875 C 13.222656 -11.664062 12.585938 -11.953125 11.828125 -12.078125 C 10.679688 -12.253906 9.695312 -11.984375 8.875 -11.265625 C 8.050781 -10.546875 7.535156 -9.5 7.328125 -8.125 C 7.109375 -6.726562 7.28125 -5.5625 7.84375 -4.625 C 8.40625 -3.695312 9.257812 -3.144531 10.40625 -2.96875 C 11.164062 -2.84375 11.859375 -2.910156 12.484375 -3.171875 C 13.109375 -3.441406 13.640625 -3.894531 14.078125 -4.53125 L 19.46875 -3.6875 C 18.695312 -1.6875 17.453125 -0.207031 15.734375 0.75 C 14.015625 1.707031 12.023438 2.007812 9.765625 1.65625 C 7.992188 1.375 6.488281 0.742188 5.25 -0.234375 C 4.007812 -1.222656 3.125 -2.46875 2.59375 -3.96875 C 2.070312 -5.476562 1.953125 -7.128906 2.234375 -8.921875 Z M 2.234375 -8.921875 "/></g></g></g><g fill="#000000" fill-opacity="1"><g transform="translate(175.905051, 339.174996)"><g><path d="M 8.328125 0.40625 C 6.210938 0.351562 4.484375 -0.191406 3.140625 -1.234375 C 1.804688 -2.285156 1.113281 -3.753906 1.0625 -5.640625 L 6.46875 -5.5 C 6.5 -4.851562 6.675781 -4.378906 7 -4.078125 C 7.320312 -3.773438 7.742188 -3.617188 8.265625 -3.609375 C 8.722656 -3.597656 9.101562 -3.703125 9.40625 -3.921875 C 9.71875 -4.148438 9.878906 -4.472656 9.890625 -4.890625 C 9.898438 -5.421875 9.660156 -5.835938 9.171875 -6.140625 C 8.679688 -6.453125 7.882812 -6.804688 6.78125 -7.203125 C 5.59375 -7.628906 4.632812 -8.035156 3.90625 -8.421875 C 3.1875 -8.816406 2.5625 -9.378906 2.03125 -10.109375 C 1.507812 -10.835938 1.265625 -11.78125 1.296875 -12.9375 C 1.328125 -14.101562 1.644531 -15.097656 2.25 -15.921875 C 2.863281 -16.742188 3.695312 -17.359375 4.75 -17.765625 C 5.800781 -18.171875 6.976562 -18.359375 8.28125 -18.328125 C 10.40625 -18.265625 12.085938 -17.71875 13.328125 -16.6875 C 14.578125 -15.664062 15.21875 -14.257812 15.25 -12.46875 L 9.734375 -12.609375 C 9.722656 -13.160156 9.5625 -13.578125 9.25 -13.859375 C 8.945312 -14.148438 8.546875 -14.300781 8.046875 -14.3125 C 7.671875 -14.320312 7.359375 -14.21875 7.109375 -14 C 6.859375 -13.78125 6.726562 -13.460938 6.71875 -13.046875 C 6.707031 -12.703125 6.832031 -12.398438 7.09375 -12.140625 C 7.351562 -11.890625 7.675781 -11.664062 8.0625 -11.46875 C 8.457031 -11.28125 9.039062 -11.039062 9.8125 -10.75 C 10.957031 -10.320312 11.898438 -9.898438 12.640625 -9.484375 C 13.378906 -9.078125 14.007812 -8.515625 14.53125 -7.796875 C 15.0625 -7.085938 15.3125 -6.195312 15.28125 -5.125 C 15.257812 -4.039062 14.960938 -3.070312 14.390625 -2.21875 C 13.816406 -1.375 13.007812 -0.710938 11.96875 -0.234375 C 10.9375 0.234375 9.722656 0.445312 8.328125 0.40625 Z M 8.328125 0.40625 "/></g></g></g><g fill="#000000" fill-opacity="1"><g transform="translate(192.525827, 339.386564)"><g/></g></g><g fill="#000000" fill-opacity="1"><g transform="translate(198.182651, 339.403898)"><g><path d="M -0.4375 -9.171875 C -0.6875 -10.953125 -0.535156 -12.585938 0.015625 -14.078125 C 0.566406 -15.578125 1.472656 -16.8125 2.734375 -17.78125 C 3.992188 -18.75 5.507812 -19.359375 7.28125 -19.609375 C 9.539062 -19.921875 11.519531 -19.582031 13.21875 -18.59375 C 14.925781 -17.601562 16.148438 -16.101562 16.890625 -14.09375 L 11.484375 -13.34375 C 11.054688 -13.96875 10.53125 -14.421875 9.90625 -14.703125 C 9.28125 -14.992188 8.59375 -15.085938 7.84375 -14.984375 C 6.6875 -14.828125 5.816406 -14.285156 5.234375 -13.359375 C 4.660156 -12.429688 4.472656 -11.273438 4.671875 -9.890625 C 4.859375 -8.492188 5.351562 -7.425781 6.15625 -6.6875 C 6.96875 -5.957031 7.953125 -5.671875 9.109375 -5.828125 C 9.859375 -5.929688 10.492188 -6.203125 11.015625 -6.640625 C 11.546875 -7.078125 11.929688 -7.664062 12.171875 -8.40625 L 17.578125 -9.15625 C 17.410156 -7.019531 16.640625 -5.242188 15.265625 -3.828125 C 13.898438 -2.410156 12.085938 -1.546875 9.828125 -1.234375 C 8.054688 -0.984375 6.429688 -1.148438 4.953125 -1.734375 C 3.484375 -2.328125 2.28125 -3.265625 1.34375 -4.546875 C 0.40625 -5.835938 -0.1875 -7.378906 -0.4375 -9.171875 Z M -0.4375 -9.171875 "/></g></g></g><g fill="#000000" fill-opacity="1"><g transform="translate(218.736688, 336.502206)"><g><path d="M 9.828125 -2.640625 C 8.203125 -2.171875 6.59375 -2.117188 5 -2.484375 C 3.40625 -2.859375 2.003906 -3.617188 0.796875 -4.765625 C -0.410156 -5.910156 -1.257812 -7.34375 -1.75 -9.0625 C -2.25 -10.78125 -2.289062 -12.4375 -1.875 -14.03125 C -1.46875 -15.625 -0.691406 -17.003906 0.453125 -18.171875 C 1.609375 -19.335938 3 -20.15625 4.625 -20.625 C 6.289062 -21.101562 7.914062 -21.15625 9.5 -20.78125 C 11.09375 -20.414062 12.484375 -19.664062 13.671875 -18.53125 C 14.867188 -17.394531 15.71875 -15.96875 16.21875 -14.25 C 16.707031 -12.53125 16.753906 -10.867188 16.359375 -9.265625 C 15.960938 -7.660156 15.1875 -6.273438 14.03125 -5.109375 C 12.875 -3.941406 11.472656 -3.117188 9.828125 -2.640625 Z M 8.515625 -7.1875 C 9.765625 -7.550781 10.632812 -8.238281 11.125 -9.25 C 11.613281 -10.269531 11.664062 -11.460938 11.28125 -12.828125 C 10.875 -14.210938 10.191406 -15.203125 9.234375 -15.796875 C 8.273438 -16.398438 7.171875 -16.519531 5.921875 -16.15625 C 4.671875 -15.789062 3.804688 -15.101562 3.328125 -14.09375 C 2.847656 -13.082031 2.8125 -11.882812 3.21875 -10.5 C 3.613281 -9.113281 4.28125 -8.125 5.21875 -7.53125 C 6.164062 -6.9375 7.265625 -6.820312 8.515625 -7.1875 Z M 8.515625 -7.1875 "/></g></g></g><g fill="#000000" fill-opacity="1"><g transform="translate(239.555309, 330.530739)"><g><path d="M 12.75 -26.21875 L 20.5625 -9.734375 L 15.96875 -7.5625 L 11.65625 -16.65625 L 12.859375 -6.09375 L 9.015625 -4.28125 L 1.546875 -11.96875 L 5.890625 -2.796875 L 1.3125 -0.625 L -6.5 -17.109375 L -0.96875 -19.734375 L 8.25 -10.984375 L 7.21875 -23.609375 Z M 12.75 -26.21875 "/></g></g></g><g fill="#000000" fill-opacity="1"><g transform="translate(262.292961, 319.353759)"><g><path d="M 6.4375 -18.921875 C 7.050781 -18.003906 7.394531 -17.023438 7.46875 -15.984375 C 7.539062 -14.941406 7.300781 -13.910156 6.75 -12.890625 C 6.207031 -11.878906 5.320312 -10.960938 4.09375 -10.140625 L 2 -8.75 L 5.421875 -3.625 L 1.203125 -0.8125 L -8.921875 -15.96875 L -2.609375 -20.171875 C -1.390625 -20.984375 -0.210938 -21.460938 0.921875 -21.609375 C 2.066406 -21.753906 3.101562 -21.59375 4.03125 -21.125 C 4.96875 -20.65625 5.769531 -19.921875 6.4375 -18.921875 Z M 1.4375 -13.203125 C 2.632812 -14.003906 2.867188 -14.953125 2.140625 -16.046875 C 1.398438 -17.148438 0.429688 -17.300781 -0.765625 -16.5 L -2.4375 -15.390625 L -0.234375 -12.09375 Z M 1.4375 -13.203125 "/></g></g></g><g fill="#000000" fill-opacity="1"><g transform="translate(276.630593, 309.63728)"><g><path d="M -4.140625 -15.03125 L -2.234375 -12.765625 L 2.21875 -16.53125 L 4.703125 -13.578125 L 0.25 -9.8125 L 2.375 -7.296875 L 7.4375 -11.5625 L 10.046875 -8.453125 L 1.109375 -0.9375 L -10.625 -14.890625 L -1.6875 -22.40625 L 0.921875 -19.296875 Z M -4.140625 -15.03125 "/></g></g></g><g fill="#000000" fill-opacity="1"><g transform="translate(288.123222, 299.962486)"><g><path d="M -2.671875 -23.578125 L 0.25 -20.796875 L -3.109375 -17.28125 L 7.140625 -7.453125 L 3.625 -3.796875 L -6.625 -13.625 L -9.953125 -10.140625 L -12.875 -12.921875 Z M -2.671875 -23.578125 "/></g></g></g><g fill="#000000" fill-opacity="1"><g transform="translate(299.24809, 288.071266)"><g><path d="M -10.09375 -16.53125 L 4.09375 -5.078125 L 0.90625 -1.125 L -13.28125 -12.578125 Z M -10.09375 -16.53125 "/></g></g></g><g fill="#000000" fill-opacity="1"><g transform="translate(304.777539, 281.430512)"><g><path d="M -6.609375 -22.796875 L -3.265625 -20.53125 L -5.984375 -16.5 L 5.78125 -8.5625 L 2.9375 -4.359375 L -8.828125 -12.296875 L -11.515625 -8.296875 L -14.859375 -10.5625 Z M -6.609375 -22.796875 "/></g></g></g><g fill="#000000" fill-opacity="1"><g transform="translate(313.727549, 267.826709)"><g><path d="M -12.75 -14.5625 L 3.171875 -5.6875 L 0.703125 -1.265625 L -15.21875 -10.140625 Z M -12.75 -14.5625 "/></g></g></g><g fill="#000000" fill-opacity="1"><g transform="translate(318.245474, 260.284626)"><g><path d="M 4.203125 -9.28125 C 3.523438 -7.71875 2.535156 -6.4375 1.234375 -5.4375 C -0.0546875 -4.445312 -1.523438 -3.847656 -3.171875 -3.640625 C -4.816406 -3.429688 -6.460938 -3.679688 -8.109375 -4.390625 C -9.753906 -5.097656 -11.0625 -6.117188 -12.03125 -7.453125 C -13.007812 -8.785156 -13.582031 -10.265625 -13.75 -11.890625 C -13.914062 -13.523438 -13.660156 -15.125 -12.984375 -16.6875 C -12.304688 -18.269531 -11.320312 -19.554688 -10.03125 -20.546875 C -8.738281 -21.535156 -7.273438 -22.128906 -5.640625 -22.328125 C -4.003906 -22.523438 -2.363281 -22.269531 -0.71875 -21.5625 C 0.925781 -20.851562 2.238281 -19.835938 3.21875 -18.515625 C 4.207031 -17.191406 4.785156 -15.710938 4.953125 -14.078125 C 5.128906 -12.453125 4.878906 -10.851562 4.203125 -9.28125 Z M -0.125 -11.15625 C 0.382812 -12.351562 0.398438 -13.460938 -0.078125 -14.484375 C -0.554688 -15.503906 -1.445312 -16.289062 -2.75 -16.84375 C -4.082031 -17.414062 -5.28125 -17.523438 -6.34375 -17.171875 C -7.414062 -16.816406 -8.207031 -16.039062 -8.71875 -14.84375 C -9.238281 -13.644531 -9.257812 -12.535156 -8.78125 -11.515625 C -8.300781 -10.503906 -7.394531 -9.710938 -6.0625 -9.140625 C -4.738281 -8.578125 -3.546875 -8.472656 -2.484375 -8.828125 C -1.429688 -9.179688 -0.644531 -9.957031 -0.125 -11.15625 Z M -0.125 -11.15625 "/></g></g></g><g fill="#000000" fill-opacity="1"><g transform="translate(326.655135, 240.48924)"><g><path d="M 4.75 -17.71875 L 3.4375 -12.828125 L -8.15625 -8.9375 L 1.6875 -6.296875 L 0.375 -1.40625 L -17.234375 -6.125 L -15.921875 -11.015625 L -4.21875 -14.875 L -14.171875 -17.546875 L -12.859375 -22.4375 Z M 4.75 -17.71875 "/></g></g></g><g fill="#000000" fill-opacity="1"><g transform="translate(101.19893, 208.128957)"><g><path d="M 32.09375 -25.75 L 31.84375 -7.59375 C 31.957031 -6.488281 32.34375 -5.609375 33 -4.953125 C 33 -4.953125 33.023438 -4.894531 33.078125 -4.78125 C 33.140625 -4.675781 33.144531 -4.539062 33.09375 -4.375 C 33.03125 -4.257812 32.957031 -4.175781 32.875 -4.125 C 32.800781 -4.070312 32.765625 -4.046875 32.765625 -4.046875 C 31.609375 -3.929688 30.613281 -3.503906 29.78125 -2.765625 C 28.957031 -2.023438 28.519531 -1.1875 28.46875 -0.25 C 28.46875 -0.25 28.46875 -0.207031 28.46875 -0.125 C 28.46875 -0.0390625 28.410156 0 28.296875 0 L 4.78125 0 C 4.726562 0 4.6875 -0.0390625 4.65625 -0.125 C 4.632812 -0.207031 4.625 -0.25 4.625 -0.25 C 4.5625 -1.1875 4.117188 -2.023438 3.296875 -2.765625 C 2.472656 -3.503906 1.484375 -3.929688 0.328125 -4.046875 C 0.328125 -4.046875 0.285156 -4.070312 0.203125 -4.125 C 0.117188 -4.175781 0.0507812 -4.257812 0 -4.375 C -0.0507812 -4.539062 -0.0507812 -4.675781 0 -4.78125 C 0.0507812 -4.894531 0.078125 -4.953125 0.078125 -4.953125 C 0.847656 -5.722656 1.234375 -6.6875 1.234375 -7.84375 L 1.234375 -25.90625 L 15.34375 -17.25 L 15.34375 -8.421875 C 15.34375 -7.921875 15.59375 -7.425781 16.09375 -6.9375 C 16.644531 -6.382812 17.300781 -6.328125 18.0625 -6.765625 C 18.832031 -7.203125 19.21875 -7.722656 19.21875 -8.328125 L 19.21875 -23.765625 L 3.46875 -34.484375 C 2.96875 -34.816406 2.441406 -34.992188 1.890625 -35.015625 C 1.347656 -35.046875 1.019531 -35.09375 0.90625 -35.15625 C 0.800781 -35.257812 0.632812 -35.453125 0.40625 -35.734375 C 0.300781 -35.898438 0.332031 -36.09375 0.5 -36.3125 C 1.101562 -37.238281 1.445312 -38.390625 1.53125 -39.765625 C 1.613281 -41.140625 1.679688 -42.132812 1.734375 -42.75 L 1.734375 -52.640625 C 1.734375 -53.796875 1.347656 -54.757812 0.578125 -55.53125 C 0.578125 -55.53125 0.546875 -55.582031 0.484375 -55.6875 C 0.429688 -55.800781 0.4375 -55.941406 0.5 -56.109375 C 0.550781 -56.222656 0.617188 -56.304688 0.703125 -56.359375 C 0.785156 -56.410156 0.828125 -56.4375 0.828125 -56.4375 C 1.921875 -56.550781 2.894531 -56.976562 3.75 -57.71875 C 4.601562 -58.457031 5.054688 -59.296875 5.109375 -60.234375 C 5.109375 -60.234375 5.125 -60.273438 5.15625 -60.359375 C 5.1875 -60.441406 5.226562 -60.484375 5.28125 -60.484375 L 28.0625 -60.5625 C 28.164062 -60.5625 28.21875 -60.519531 28.21875 -60.4375 C 28.21875 -60.351562 28.21875 -60.3125 28.21875 -60.3125 C 28.332031 -59.382812 28.800781 -58.546875 29.625 -57.796875 C 30.445312 -57.054688 31.410156 -56.628906 32.515625 -56.515625 C 32.515625 -56.515625 32.554688 -56.488281 32.640625 -56.4375 C 32.722656 -56.382812 32.789062 -56.300781 32.84375 -56.1875 C 32.894531 -56.03125 32.894531 -55.894531 32.84375 -55.78125 C 32.789062 -55.664062 32.765625 -55.609375 32.765625 -55.609375 C 31.992188 -54.835938 31.609375 -53.878906 31.609375 -52.734375 L 31.609375 -38.375 L 18.8125 -46.53125 L 18.8125 -52.5625 C 18.8125 -52.832031 18.628906 -53.1875 18.265625 -53.625 C 17.910156 -54.070312 17.515625 -54.296875 17.078125 -54.296875 C 17.078125 -54.296875 16.882812 -54.296875 16.5 -54.296875 C 16.113281 -54.296875 15.726562 -54.101562 15.34375 -53.71875 C 14.851562 -53.21875 14.609375 -52.75 14.609375 -52.3125 L 14.609375 -41.75 L 30.609375 -30.53125 C 30.941406 -30.3125 31.328125 -30.101562 31.765625 -29.90625 C 32.203125 -29.71875 32.613281 -29.597656 33 -29.546875 C 33 -29.546875 33.039062 -29.515625 33.125 -29.453125 C 33.207031 -29.398438 33.28125 -29.316406 33.34375 -29.203125 C 33.394531 -29.046875 33.390625 -28.910156 33.328125 -28.796875 C 33.273438 -28.691406 33.25 -28.640625 33.25 -28.640625 C 32.476562 -27.867188 32.09375 -26.90625 32.09375 -25.75 Z M 32.09375 -25.75 "/></g></g></g><g fill="#000000" fill-opacity="1"><g transform="translate(137.175903, 208.128957)"><g><path d="M 38.703125 -6.765625 L 40.84375 -6.765625 L 40.84375 -2.71875 L 42.90625 -0.75 L 42.90625 0 L 22.4375 0 L 22.4375 -0.75 L 24.5 -2.71875 L 24.5 -6.765625 L 26.328125 -6.765625 L 20.375 -24.671875 L 17.25 -21.703125 L 17.25 -6.765625 L 19.21875 -6.765625 L 19.21875 -2.71875 L 21.375 -0.75 L 21.375 0 L 0 0 L 0 -0.75 L 2.140625 -2.8125 L 2.140625 -6.765625 L 4.046875 -6.765625 L 3.953125 -32.671875 L 4.046875 -54.296875 L 2.140625 -54.296875 L 2.140625 -57.671875 L 0 -59.828125 L 0 -60.5625 L 32.921875 -60.5625 C 33.035156 -60.5625 33.09375 -60.519531 33.09375 -60.4375 C 33.09375 -60.351562 33.09375 -60.3125 33.09375 -60.3125 C 33.195312 -59.382812 33.660156 -58.546875 34.484375 -57.796875 C 35.316406 -57.054688 36.28125 -56.628906 37.375 -56.515625 C 37.375 -56.515625 37.414062 -56.488281 37.5 -56.4375 C 37.582031 -56.382812 37.648438 -56.300781 37.703125 -56.1875 C 37.765625 -56.03125 37.765625 -55.894531 37.703125 -55.78125 C 37.648438 -55.664062 37.625 -55.609375 37.625 -55.609375 C 36.851562 -54.835938 36.46875 -53.878906 36.46875 -52.734375 L 36.46875 -39.28125 C 36.46875 -37.90625 36.9375 -36.832031 37.875 -36.0625 L 37.875 -34.828125 L 37.46875 -34.578125 L 30.203125 -29.546875 Z M 17.25 -54.296875 L 17.25 -30.03125 L 23.015625 -34.65625 L 23.015625 -52.640625 C 23.015625 -52.921875 22.820312 -53.265625 22.4375 -53.671875 C 22.050781 -54.085938 21.640625 -54.296875 21.203125 -54.296875 Z M 17.25 -54.296875 "/></g></g></g><g fill="#000000" fill-opacity="1"><g transform="translate(182.972297, 208.128957)"><g><path d="M 49.515625 -59.828125 L 47.453125 -57.671875 L 47.359375 -54.296875 L 45.46875 -54.296875 L 45.390625 -6.765625 L 47.359375 -6.765625 L 47.28125 -2.71875 L 49.34375 -0.75 L 49.34375 0 L 28.0625 0 L 28.0625 -0.75 L 30.125 -2.8125 L 30.125 -6.765625 L 32.1875 -6.765625 L 32.265625 -33.578125 L 25.578125 -9.90625 L 24.09375 -9.90625 L 17.25 -33.578125 L 17.25 -6.765625 L 19.140625 -6.765625 L 19.140625 -2.8125 L 21.28125 -0.75 L 21.28125 0 L 0 0 L 0 -0.75 L 2.0625 -2.8125 L 2.0625 -6.765625 L 4.046875 -6.765625 L 4.046875 -54.296875 L 2.0625 -54.296875 L 2.0625 -57.671875 L 0 -59.828125 L 0 -60.5625 L 21.28125 -60.5625 L 21.28125 -59.828125 L 19.140625 -57.671875 L 19.140625 -54.296875 L 17.734375 -54.296875 L 24.84375 -31.515625 L 31.9375 -54.296875 L 30.359375 -54.296875 L 30.359375 -57.671875 L 28.21875 -59.828125 L 28.21875 -60.5625 L 49.515625 -60.5625 Z M 49.515625 -59.828125 "/></g></g></g><g fill="#000000" fill-opacity="1"><g transform="translate(235.369952, 208.128957)"><g><path d="M 21.859375 -9.578125 L 21.859375 -18.65625 L 34.484375 -24.921875 L 34.484375 -7.84375 C 34.484375 -6.6875 34.867188 -5.722656 35.640625 -4.953125 C 35.640625 -4.953125 35.664062 -4.894531 35.71875 -4.78125 C 35.78125 -4.675781 35.785156 -4.539062 35.734375 -4.375 C 35.671875 -4.257812 35.597656 -4.175781 35.515625 -4.125 C 35.441406 -4.070312 35.40625 -4.046875 35.40625 -4.046875 C 34.25 -3.929688 33.253906 -3.503906 32.421875 -2.765625 C 31.597656 -2.023438 31.160156 -1.1875 31.109375 -0.25 C 31.109375 -0.25 31.109375 -0.207031 31.109375 -0.125 C 31.109375 -0.0390625 31.050781 0 30.9375 0 L 3.953125 0 C 3.898438 0 3.859375 -0.0390625 3.828125 -0.125 C 3.804688 -0.207031 3.796875 -0.25 3.796875 -0.25 C 3.742188 -1.1875 3.300781 -2.023438 2.46875 -2.765625 C 1.644531 -3.503906 0.65625 -3.929688 -0.5 -4.046875 C -0.5 -4.046875 -0.539062 -4.070312 -0.625 -4.125 C -0.707031 -4.175781 -0.773438 -4.257812 -0.828125 -4.375 C -0.878906 -4.539062 -0.878906 -4.675781 -0.828125 -4.78125 C -0.773438 -4.894531 -0.75 -4.953125 -0.75 -4.953125 C 0.0195312 -5.722656 0.40625 -6.6875 0.40625 -7.84375 L 0.40625 -52.734375 C 0.40625 -53.878906 0.0195312 -54.835938 -0.75 -55.609375 C -0.75 -55.609375 -0.773438 -55.664062 -0.828125 -55.78125 C -0.878906 -55.894531 -0.878906 -56.03125 -0.828125 -56.1875 C -0.773438 -56.300781 -0.707031 -56.382812 -0.625 -56.4375 C -0.539062 -56.488281 -0.5 -56.515625 -0.5 -56.515625 C 0.65625 -56.628906 1.644531 -57.070312 2.46875 -57.84375 C 3.300781 -58.613281 3.742188 -59.4375 3.796875 -60.3125 C 3.796875 -60.3125 3.804688 -60.351562 3.828125 -60.4375 C 3.859375 -60.519531 3.898438 -60.5625 3.953125 -60.5625 L 30.9375 -60.5625 C 31.050781 -60.5625 31.109375 -60.519531 31.109375 -60.4375 C 31.109375 -60.351562 31.109375 -60.3125 31.109375 -60.3125 C 31.109375 -60.15625 31.164062 -59.910156 31.28125 -59.578125 L 31.6875 -58.75 C 31.957031 -58.144531 32.453125 -57.648438 33.171875 -57.265625 C 33.890625 -56.878906 34.632812 -56.628906 35.40625 -56.515625 C 35.40625 -56.515625 35.441406 -56.488281 35.515625 -56.4375 C 35.597656 -56.382812 35.671875 -56.300781 35.734375 -56.1875 C 35.785156 -56.03125 35.78125 -55.894531 35.71875 -55.78125 C 35.664062 -55.664062 35.640625 -55.609375 35.640625 -55.609375 C 34.867188 -54.835938 34.484375 -53.878906 34.484375 -52.734375 L 34.484375 -36.890625 L 21.78125 -44.3125 L 21.78125 -51.078125 C 21.78125 -51.628906 21.367188 -52.289062 20.546875 -53.0625 C 19.722656 -53.832031 18.707031 -54.21875 17.5 -54.21875 C 16.28125 -54.21875 15.242188 -53.832031 14.390625 -53.0625 C 13.546875 -52.289062 13.125 -51.628906 13.125 -51.078125 L 13.203125 -9.578125 C 13.203125 -9.023438 13.597656 -8.347656 14.390625 -7.546875 C 15.191406 -6.753906 16.195312 -6.359375 17.40625 -6.359375 C 18.613281 -6.359375 19.65625 -6.753906 20.53125 -7.546875 C 21.414062 -8.347656 21.859375 -9.023438 21.859375 -9.578125 Z M 21.859375 -9.578125 "/></g></g></g><g fill="#000000" fill-opacity="1"><g transform="translate(66.232373, 134.160006)"><g><path d="M 3.8125 -7.40625 C 2.882812 -5.507812 1.664062 -4.164062 0.15625 -3.375 C -1.34375 -2.59375 -2.96875 -2.566406 -4.71875 -3.296875 L -2.34375 -8.15625 C -1.738281 -7.925781 -1.234375 -7.894531 -0.828125 -8.0625 C -0.421875 -8.226562 -0.101562 -8.546875 0.125 -9.015625 C 0.320312 -9.421875 0.378906 -9.8125 0.296875 -10.1875 C 0.222656 -10.5625 0 -10.835938 -0.375 -11.015625 C -0.851562 -11.242188 -1.332031 -11.195312 -1.8125 -10.875 C -2.289062 -10.5625 -2.941406 -9.984375 -3.765625 -9.140625 C -4.640625 -8.234375 -5.398438 -7.53125 -6.046875 -7.03125 C -6.703125 -6.539062 -7.472656 -6.207031 -8.359375 -6.03125 C -9.242188 -5.851562 -10.207031 -6.019531 -11.25 -6.53125 C -12.289062 -7.039062 -13.0625 -7.742188 -13.5625 -8.640625 C -14.0625 -9.535156 -14.28125 -10.539062 -14.21875 -11.65625 C -14.15625 -12.78125 -13.835938 -13.925781 -13.265625 -15.09375 C -12.335938 -17 -11.148438 -18.304688 -9.703125 -19.015625 C -8.253906 -19.734375 -6.703125 -19.738281 -5.046875 -19.03125 L -7.453125 -14.078125 C -7.960938 -14.296875 -8.410156 -14.320312 -8.796875 -14.15625 C -9.191406 -13.988281 -9.5 -13.679688 -9.71875 -13.234375 C -9.882812 -12.890625 -9.914062 -12.554688 -9.8125 -12.234375 C -9.71875 -11.921875 -9.484375 -11.675781 -9.109375 -11.5 C -8.796875 -11.34375 -8.46875 -11.332031 -8.125 -11.46875 C -7.78125 -11.601562 -7.441406 -11.804688 -7.109375 -12.078125 C -6.773438 -12.359375 -6.316406 -12.789062 -5.734375 -13.375 C -4.867188 -14.238281 -4.097656 -14.921875 -3.421875 -15.421875 C -2.753906 -15.921875 -1.984375 -16.265625 -1.109375 -16.453125 C -0.242188 -16.648438 0.671875 -16.515625 1.640625 -16.046875 C 2.609375 -15.566406 3.359375 -14.890625 3.890625 -14.015625 C 4.429688 -13.148438 4.703125 -12.144531 4.703125 -11 C 4.710938 -9.863281 4.414062 -8.664062 3.8125 -7.40625 Z M 3.8125 -7.40625 "/></g></g></g><g fill="#000000" fill-opacity="1"><g transform="translate(72.766835, 120.511109)"><g><path d="M 5.78125 -8.984375 L -1.828125 -9.578125 L -2.125 -9.125 L 3.53125 -5.484375 L 0.78125 -1.21875 L -14.546875 -11.078125 L -10.21875 -17.796875 C -9.425781 -19.035156 -8.539062 -19.945312 -7.5625 -20.53125 C -6.59375 -21.113281 -5.59375 -21.378906 -4.5625 -21.328125 C -3.53125 -21.285156 -2.550781 -20.96875 -1.625 -20.375 C -0.582031 -19.707031 0.144531 -18.828125 0.5625 -17.734375 C 0.988281 -16.648438 1.015625 -15.445312 0.640625 -14.125 L 8.84375 -13.75 Z M -5.03125 -11 L -3.671875 -13.109375 C -3.304688 -13.691406 -3.164062 -14.210938 -3.25 -14.671875 C -3.34375 -15.140625 -3.65625 -15.539062 -4.1875 -15.875 C -4.675781 -16.195312 -5.15625 -16.300781 -5.625 -16.1875 C -6.101562 -16.082031 -6.523438 -15.742188 -6.890625 -15.171875 L -8.25 -13.0625 Z M -5.03125 -11 "/></g></g></g><g fill="#000000" fill-opacity="1"><g transform="translate(81.785263, 106.818739)"><g><path d="M -10.375 -16.34375 L 4 -5.140625 L 0.890625 -1.140625 L -13.484375 -12.34375 Z M -10.375 -16.34375 "/></g></g></g><g fill="#000000" fill-opacity="1"><g transform="translate(85.959593, 100.923345)"><g><path d="M 12.671875 -13.265625 L 9.171875 -9.609375 L -2.875 -11.75 L 4.5 -4.71875 L 1 -1.046875 L -12.1875 -13.640625 L -8.6875 -17.3125 L 3.4375 -15.078125 L -4.015625 -22.203125 L -0.515625 -25.859375 Z M 12.671875 -13.265625 "/></g></g></g><g fill="#000000" fill-opacity="1"><g transform="translate(99.270315, 87.350495)"><g><path d="M -6.90625 -18.078125 L 4.953125 -4.234375 L 1.109375 -0.953125 L -10.75 -14.796875 Z M -6.90625 -18.078125 "/></g></g></g><g fill="#000000" fill-opacity="1"><g transform="translate(104.553642, 82.407437)"><g><path d="M 5.28125 -25.953125 L 10.578125 -7.390625 L 5.265625 -3.671875 L -10.359375 -15.015625 L -5.921875 -18.125 L 5.015625 -9.703125 L 0.859375 -22.859375 Z M 5.28125 -25.953125 "/></g></g></g><g fill="#000000" fill-opacity="1"><g transform="translate(119.481697, 71.876037)"><g><path d="M 10.234375 -8.515625 L 4.46875 -5.59375 L 4.9375 -2.5 L 0.1875 -0.09375 L -2.140625 -19.375 L 3.078125 -22.015625 L 17.234375 -8.75 L 12.453125 -6.328125 Z M 7.34375 -11.421875 L 2.921875 -15.796875 L 3.859375 -9.640625 Z M 7.34375 -11.421875 "/></g></g></g><g fill="#000000" fill-opacity="1"><g transform="translate(136.045534, 63.518322)"><g><path d="M 7.90625 -2.625 C 5.914062 -1.914062 4.109375 -1.804688 2.484375 -2.296875 C 0.859375 -2.785156 -0.316406 -3.898438 -1.046875 -5.640625 L 4.046875 -7.453125 C 4.304688 -6.867188 4.640625 -6.492188 5.046875 -6.328125 C 5.460938 -6.160156 5.914062 -6.164062 6.40625 -6.34375 C 6.832031 -6.5 7.148438 -6.734375 7.359375 -7.046875 C 7.566406 -7.367188 7.597656 -7.726562 7.453125 -8.125 C 7.273438 -8.625 6.90625 -8.925781 6.34375 -9.03125 C 5.78125 -9.144531 4.910156 -9.1875 3.734375 -9.15625 C 2.460938 -9.125 1.421875 -9.160156 0.609375 -9.265625 C -0.203125 -9.367188 -0.984375 -9.664062 -1.734375 -10.15625 C -2.492188 -10.644531 -3.066406 -11.4375 -3.453125 -12.53125 C -3.835938 -13.632812 -3.890625 -14.675781 -3.609375 -15.65625 C -3.335938 -16.644531 -2.785156 -17.519531 -1.953125 -18.28125 C -1.128906 -19.039062 -0.101562 -19.640625 1.125 -20.078125 C 3.125 -20.785156 4.890625 -20.882812 6.421875 -20.375 C 7.953125 -19.863281 9.054688 -18.773438 9.734375 -17.109375 L 4.53125 -15.25 C 4.332031 -15.769531 4.035156 -16.101562 3.640625 -16.25 C 3.253906 -16.40625 2.828125 -16.398438 2.359375 -16.234375 C 2.003906 -16.109375 1.742188 -15.898438 1.578125 -15.609375 C 1.421875 -15.316406 1.414062 -14.972656 1.5625 -14.578125 C 1.675781 -14.253906 1.898438 -14.019531 2.234375 -13.875 C 2.578125 -13.738281 2.96875 -13.648438 3.40625 -13.609375 C 3.84375 -13.566406 4.46875 -13.546875 5.28125 -13.546875 C 6.5 -13.566406 7.523438 -13.515625 8.359375 -13.390625 C 9.203125 -13.273438 10 -12.984375 10.75 -12.515625 C 11.5 -12.046875 12.050781 -11.304688 12.40625 -10.296875 C 12.769531 -9.273438 12.835938 -8.257812 12.609375 -7.25 C 12.390625 -6.25 11.878906 -5.34375 11.078125 -4.53125 C 10.273438 -3.71875 9.21875 -3.082031 7.90625 -2.625 Z M 7.90625 -2.625 "/></g></g></g><g fill="#000000" fill-opacity="1"><g transform="translate(150.191498, 58.306404)"><g><path d="M 12.0625 -5.65625 L 5.75 -4.28125 L 5.40625 -1.171875 L 0.203125 -0.046875 L 2.84375 -19.28125 L 8.5625 -20.515625 L 18.890625 -4.09375 L 13.65625 -2.953125 Z M 10 -9.1875 L 6.828125 -14.53125 L 6.1875 -8.359375 Z M 10 -9.1875 "/></g></g></g><g fill="#000000" fill-opacity="1"><g transform="translate(168.664259, 54.603842)"><g/></g></g><g fill="#000000" fill-opacity="1"><g transform="translate(172.93652, 53.79948)"><g><path d="M 10.671875 -0.484375 L 6.75 -7.0625 L 6.203125 -7.03125 L 6.515625 -0.296875 L 1.453125 -0.0625 L 0.625 -18.28125 L 8.59375 -18.640625 C 10.0625 -18.710938 11.316406 -18.519531 12.359375 -18.0625 C 13.398438 -17.601562 14.195312 -16.9375 14.75 -16.0625 C 15.3125 -15.195312 15.617188 -14.210938 15.671875 -13.109375 C 15.722656 -11.867188 15.429688 -10.757812 14.796875 -9.78125 C 14.160156 -8.8125 13.191406 -8.109375 11.890625 -7.671875 L 16.34375 -0.75 Z M 6.046875 -10.46875 L 8.546875 -10.578125 C 9.234375 -10.609375 9.742188 -10.796875 10.078125 -11.140625 C 10.410156 -11.484375 10.5625 -11.96875 10.53125 -12.59375 C 10.5 -13.175781 10.300781 -13.628906 9.9375 -13.953125 C 9.570312 -14.273438 9.050781 -14.421875 8.375 -14.390625 L 5.875 -14.28125 Z M 6.046875 -10.46875 "/></g></g></g><g fill="#000000" fill-opacity="1"><g transform="translate(189.019495, 52.921229)"><g><path d="M 13.1875 -1.828125 L 6.734375 -2.390625 L 5.515625 0.484375 L 0.203125 0.015625 L 8.40625 -17.578125 L 14.234375 -17.078125 L 19.25 1.671875 L 13.921875 1.203125 Z M 12.265625 -5.8125 L 10.828125 -11.859375 L 8.375 -6.15625 Z M 12.265625 -5.8125 "/></g></g></g><g fill="#000000" fill-opacity="1"><g transform="translate(207.343415, 54.236056)"><g><path d="M 26.484375 -12.1875 L 22.078125 5.5 L 17.140625 4.28125 L 19.578125 -5.484375 L 13.8125 3.4375 L 9.6875 2.421875 L 8.78125 -8.265625 L 6.328125 1.578125 L 1.40625 0.359375 L 5.8125 -17.328125 L 11.765625 -15.859375 L 13.34375 -3.265625 L 20.546875 -13.65625 Z M 26.484375 -12.1875 "/></g></g></g><g fill="#000000" fill-opacity="1"><g transform="translate(229.634513, 59.886176)"><g><path d="M 13.109375 2.34375 L 7.15625 -0.1875 L 5.09375 2.171875 L 0.1875 0.078125 L 13.453125 -14.09375 L 18.828125 -11.8125 L 17.78125 7.5625 L 12.859375 5.46875 Z M 13.46875 -1.734375 L 13.953125 -7.921875 L 9.875 -3.25 Z M 13.46875 -1.734375 "/></g></g></g><g fill="#000000" fill-opacity="1"><g transform="translate(246.660113, 67.033292)"><g><path d="M 15.703125 9.5 L 11.359375 6.875 L 10.84375 -5.34375 L 5.578125 3.375 L 1.25 0.75 L 10.6875 -14.859375 L 15.015625 -12.234375 L 15.453125 0.09375 L 20.796875 -8.734375 L 25.140625 -6.109375 Z M 15.703125 9.5 "/></g></g></g><g fill="#000000" fill-opacity="1"><g transform="translate(262.714319, 76.715991)"><g><path d="M 16.46875 -10.109375 L 9.8125 -1.890625 C 9.195312 -1.128906 8.894531 -0.398438 8.90625 0.296875 C 8.925781 0.992188 9.300781 1.640625 10.03125 2.234375 C 10.75 2.816406 11.457031 3.046875 12.15625 2.921875 C 12.863281 2.804688 13.523438 2.375 14.140625 1.625 L 20.796875 -6.59375 L 24.75 -3.390625 L 18.09375 4.828125 C 17.039062 6.117188 15.863281 7 14.5625 7.46875 C 13.269531 7.9375 11.960938 8.019531 10.640625 7.71875 C 9.316406 7.414062 8.078125 6.796875 6.921875 5.859375 C 5.773438 4.929688 4.9375 3.863281 4.40625 2.65625 C 3.882812 1.457031 3.734375 0.195312 3.953125 -1.125 C 4.179688 -2.457031 4.828125 -3.773438 5.890625 -5.078125 L 12.546875 -13.296875 Z M 16.46875 -10.109375 "/></g></g></g><g fill="#000000" fill-opacity="1"><g transform="translate(276.271182, 87.771958)"><g><path d="M 22.515625 -2.9375 L 13.828125 5.453125 C 12.359375 6.878906 10.84375 7.566406 9.28125 7.515625 C 7.71875 7.472656 6.257812 6.75 4.90625 5.34375 C 3.476562 3.863281 2.75 2.28125 2.71875 0.59375 C 2.695312 -1.09375 3.46875 -2.691406 5.03125 -4.203125 L 8.515625 -0.609375 C 7.503906 0.398438 7.359375 1.273438 8.078125 2.015625 C 8.734375 2.691406 9.476562 2.625 10.3125 1.8125 L 19 -6.578125 Z M 22.515625 -2.9375 "/></g></g></g><g fill="#000000" fill-opacity="1"><g transform="translate(286.258712, 97.823666)"><g><path d="M 10.15625 8.609375 L 6.28125 3.4375 L 3.3125 4.421875 L 0.125 0.15625 L 18.703125 -5.453125 L 22.21875 -0.765625 L 11.59375 15.46875 L 8.375 11.171875 Z M 12.515625 5.265625 L 16.046875 0.15625 L 10.171875 2.140625 Z M 12.515625 5.265625 "/></g></g></g><g fill="#000000" fill-opacity="1"><g transform="translate(297.401225, 112.547832)"><g><path d="M 8.8125 16.09375 L 6.390625 11.640625 L 12.0625 0.828125 L 3.125 5.71875 L 0.703125 1.28125 L 16.6875 -7.484375 L 19.109375 -3.046875 L 13.34375 7.828125 L 22.375 2.875 L 24.796875 7.328125 Z M 8.8125 16.09375 "/></g></g></g><g fill="#000000" fill-opacity="1"><g transform="translate(306.309433, 129.436815)"><g/></g></g></svg>